<svg width="53" height="60" viewBox="0 0 53 60" fill="none" xmlns="http://www.w3.org/2000/svg">
<ellipse cx="27" cy="33.5" rx="26" ry="25.5" fill="#000B38"/>
<g clip-path="url(#clip0_497_635)">
<path d="M10.2075 27.079V26.4375H13.1574V27.079H15.4932V29.264H7.87166V27.079H10.2075ZM10.5031 34.4349C10.0841 34.4349 9.71045 34.3698 9.38557 34.2428C9.0607 34.1158 8.78455 33.94 8.55714 33.7218C8.32973 33.5036 8.1608 33.2497 8.04384 32.9631C7.92689 32.6765 7.86841 32.3705 7.86841 32.0448C7.86841 31.7192 7.92689 31.4229 8.04384 31.1331C8.15755 30.8433 8.32973 30.586 8.55714 30.3679C8.78455 30.1497 9.0607 29.9771 9.38557 29.8469C9.71045 29.7199 10.0808 29.6547 10.5031 29.6547H12.865C13.2841 29.6547 13.6577 29.7199 13.9825 29.8469C14.3074 29.9771 14.5803 30.1497 14.8045 30.3679C15.0254 30.586 15.1976 30.8433 15.3178 31.1331C15.438 31.4261 15.4965 31.729 15.4965 32.0448C15.4965 32.3607 15.438 32.6765 15.3178 32.9631C15.1976 33.2497 15.0254 33.5036 14.8045 33.7218C14.5803 33.94 14.3074 34.1158 13.9825 34.2428C13.6577 34.3731 13.2841 34.4349 12.865 34.4349H10.5031ZM10.9515 34.8224V35.5942C10.9515 35.8254 11.0229 36.011 11.1626 36.1542C11.3023 36.2975 11.4908 36.3659 11.7214 36.3659H19.161V38.5509H10.8215C10.3927 38.5509 10.0061 38.4825 9.66171 38.3457C9.3141 38.2089 9.02171 38.0168 8.77806 37.7726C8.5344 37.5284 8.34272 37.2321 8.20628 36.8869C8.06983 36.5385 8.00161 36.151 8.00161 35.7244V34.8257H10.9515V34.8224ZM10.8378 32.0448C10.8378 32.1555 10.8702 32.2402 10.9385 32.2956C11.0067 32.3509 11.0977 32.3802 11.2081 32.3802H12.1567C12.2672 32.3802 12.3582 32.3509 12.4264 32.2956C12.4946 32.2402 12.5304 32.1555 12.5304 32.0448C12.5304 31.9341 12.4979 31.8495 12.4264 31.7941C12.3582 31.7387 12.2672 31.7094 12.1567 31.7094H11.2081C11.0977 31.7094 11.0067 31.7387 10.9385 31.7941C10.8702 31.8495 10.8378 31.9341 10.8378 32.0448ZM16.0812 26.8218H19.0311V29.7133H20.1844V32.2858H19.0311V35.0764H16.0812V26.8218Z" fill="white"/>
<path d="M20.7693 36.2749C20.7693 35.5651 20.9707 35.005 21.3736 34.6045C21.7764 34.2007 22.3644 33.9988 23.1441 33.9988H30.7137C31.4934 33.9988 32.0814 34.2007 32.4843 34.6045C32.8871 35.0082 33.0885 35.5651 33.0885 36.2749C33.0885 36.9848 32.8871 37.5449 32.4843 37.9454C32.0814 38.3492 31.4934 38.5511 30.7137 38.5511H23.1441C22.3644 38.5511 21.7764 38.3492 21.3736 37.9454C20.9707 37.5416 20.7693 36.9848 20.7693 36.2749ZM32.9586 29.0623V30.99H28.4038V31.5696H32.9586V33.4973H20.8992V31.5696H25.454V30.99H22.9524C22.6536 30.99 22.3774 30.9379 22.1305 30.837C21.8836 30.7328 21.6659 30.5895 21.484 30.4071C21.2988 30.2215 21.1559 30.0066 21.0552 29.7591C20.9512 29.5117 20.9025 29.2381 20.9025 28.9353V26.8252H23.8523V28.7399C23.8523 28.9548 23.9596 29.0623 24.174 29.0623H32.9618H32.9586ZM23.7321 36.2749C23.7321 36.3694 23.7549 36.441 23.8004 36.4866C23.8491 36.5354 23.9043 36.5582 23.9758 36.5582H29.8755C29.9437 36.5582 30.0022 36.5354 30.0477 36.4866C30.0932 36.441 30.1192 36.3694 30.1192 36.2749C30.1192 36.1805 30.0964 36.1089 30.0477 36.0633C29.999 36.0177 29.9437 35.9916 29.8755 35.9916H23.9758C23.9076 35.9916 23.8491 36.0144 23.8004 36.0633C23.7549 36.1089 23.7321 36.1805 23.7321 36.2749Z" fill="white"/>
<path d="M37.172 33.406C36.6263 33.406 36.1487 33.318 35.7426 33.1422C35.3365 32.9664 34.9954 32.7287 34.7225 32.4291C34.4496 32.1295 34.2449 31.7811 34.1085 31.3806C33.972 30.9833 33.9038 30.56 33.9038 30.1139C33.9038 29.6678 33.972 29.2444 34.1085 28.8472C34.2449 28.4499 34.4496 28.0982 34.7225 27.7987C34.9954 27.4991 35.3365 27.2614 35.7426 27.0855C36.1487 26.9097 36.6263 26.8218 37.172 26.8218H38.4813C38.9426 26.8218 39.3552 26.8869 39.7126 27.0139C40.0732 27.1409 40.3883 27.3167 40.6612 27.5414H42.7534V26.8218H45.7032V34.6922H42.7534V32.6863H40.6612C40.3883 32.9077 40.0699 33.0836 39.7126 33.2138C39.352 33.3408 38.9426 33.406 38.4813 33.406H37.172ZM37.1103 34.0507V35.2067C37.1103 35.4379 37.1818 35.6235 37.3215 35.7668C37.4644 35.9068 37.6496 35.9784 37.8803 35.9784H45.8332V38.5509H36.9804C36.5515 38.5509 36.1649 38.4825 35.8206 38.3457C35.473 38.209 35.1806 38.0168 34.9369 37.7726C34.6933 37.5284 34.5016 37.2321 34.3651 36.8869C34.2287 36.5385 34.1605 36.151 34.1605 35.7244V34.054H37.1103V34.0507ZM36.8667 30.1139C36.8667 30.3874 36.9316 30.6186 37.0648 30.8075C37.198 30.9963 37.354 31.0908 37.5327 31.0908H38.1239C38.3026 31.0908 38.4585 30.9963 38.5917 30.8075C38.7249 30.6186 38.7899 30.3874 38.7899 30.1139C38.7899 29.8403 38.7217 29.6091 38.5917 29.4203C38.4585 29.2314 38.3026 29.137 38.1239 29.137H37.5327C37.354 29.137 37.198 29.2314 37.0648 29.4203C36.9316 29.6091 36.8667 29.8403 36.8667 30.1139ZM41.7528 30.1139C41.7528 30.1823 41.7528 30.2474 41.7463 30.306C41.743 30.3646 41.7333 30.4297 41.7268 30.4981H42.7534V29.7264H41.7268C41.7365 29.7948 41.743 29.8599 41.7463 29.9185C41.7495 29.9771 41.7528 30.0422 41.7528 30.1106V30.1139Z" fill="white"/>
<path d="M16.9519 18.0137V19.3846H16.2534V21.2993C16.2534 21.7551 16.3152 22.1003 16.4386 22.3315C16.5621 22.5627 16.7342 22.706 16.9519 22.7613V24.2722C16.6563 24.2266 16.3769 24.1094 16.1137 23.9173C15.8506 23.7284 15.6459 23.4744 15.4997 23.1586C15.3535 23.4744 15.1489 23.7284 14.889 23.9173C14.6258 24.1062 14.3464 24.2266 14.0508 24.2722V22.7613C14.2717 22.706 14.4406 22.5627 14.5641 22.3315C14.6875 22.1003 14.7493 21.7551 14.7493 21.2993V19.3846H14.0508V18.0137H16.9519ZM16.5068 20.2507H17.2183V18.0137H18.6575V24.2722H17.2183V21.5532H16.5068V20.2507ZM18.9077 24.2722V18.0137H20.3468V24.2722H18.9077Z" fill="#F5A200"/>
<path d="M21.0615 24.272V22.201C21.0615 21.9405 21.1038 21.7028 21.185 21.4879C21.2662 21.273 21.3831 21.0874 21.5358 20.9343C21.6885 20.7813 21.8737 20.6641 22.0881 20.5827C22.3025 20.5013 22.5397 20.4589 22.7996 20.4589H23.9724C24.1608 20.4589 24.3103 20.4133 24.4207 20.3254C24.5312 20.2375 24.5897 20.117 24.5897 19.9737C24.5897 19.8142 24.5344 19.6839 24.4207 19.583C24.3103 19.4821 24.1608 19.4332 23.9724 19.4332H21.198V18.02H24.4565C24.7066 18.02 24.9438 18.0656 25.1647 18.1535C25.3856 18.2414 25.5805 18.3684 25.743 18.5345C25.9054 18.7005 26.0353 18.8959 26.1296 19.1271C26.2238 19.3583 26.2693 19.6156 26.2693 19.8989C26.2693 20.1821 26.2238 20.4492 26.1296 20.6869C26.0353 20.9246 25.9054 21.1297 25.743 21.2991C25.5773 21.4684 25.3856 21.5986 25.1647 21.6931C24.9438 21.7875 24.7066 21.8331 24.4565 21.8331H23.2252C23.079 21.8331 22.962 21.8754 22.8776 21.9633C22.7899 22.0512 22.7476 22.1652 22.7476 22.3117V22.8621H26.3147V24.2753H21.0648L21.0615 24.272Z" fill="#F5A200"/>
<path d="M29.7488 17.8706C30.1874 17.8706 30.5837 17.9292 30.9411 18.0497C31.2952 18.1702 31.6006 18.3362 31.854 18.5577C32.1074 18.7758 32.3023 19.0429 32.442 19.3489C32.5817 19.6583 32.6499 20.0002 32.6499 20.3747V21.9181C32.6499 22.2926 32.5784 22.6345 32.442 22.9439C32.3023 23.2532 32.1074 23.517 31.854 23.7351C31.6006 23.9533 31.2952 24.1226 30.9411 24.2431C30.5837 24.3603 30.1874 24.4222 29.7488 24.4222C29.3102 24.4222 28.9139 24.3636 28.5565 24.2431C28.1991 24.1226 27.897 23.9533 27.6436 23.7351C27.3902 23.517 27.1953 23.25 27.0556 22.9439C26.9159 22.6345 26.8477 22.2926 26.8477 21.9181V20.3747C26.8477 20.0002 26.9159 19.6583 27.0556 19.3489C27.1953 19.0396 27.3902 18.7758 27.6436 18.5577C27.897 18.3362 28.2024 18.1702 28.5565 18.0497C28.9139 17.9292 29.3102 17.8706 29.7488 17.8706ZM29.7488 23.0025C29.9307 23.0025 30.0996 22.9732 30.2491 22.9178C30.3985 22.8625 30.5285 22.7811 30.6324 22.6736C30.7364 22.5694 30.8176 22.4424 30.8793 22.2926C30.9378 22.1428 30.9671 21.98 30.9671 21.8009V20.4886C30.9671 20.3095 30.9378 20.1467 30.8793 19.9969C30.8209 19.8472 30.7364 19.7202 30.6324 19.616C30.5285 19.5118 30.3985 19.4304 30.2491 19.3717C30.0996 19.3164 29.9307 19.2871 29.7488 19.2871C29.5669 19.2871 29.4012 19.3164 29.2485 19.3717C29.099 19.4304 28.9691 19.5085 28.8651 19.616C28.7612 19.7202 28.6767 19.8472 28.6182 19.9969C28.5597 20.1467 28.5305 20.3095 28.5305 20.4886V21.8009C28.5305 21.98 28.5597 22.1428 28.6182 22.2926C28.6767 22.4424 28.7612 22.5694 28.8651 22.6736C28.9691 22.7778 29.099 22.8592 29.2485 22.9178C29.3979 22.9764 29.5669 23.0025 29.7488 23.0025Z" fill="#F5A200"/>
<path d="M34.7355 23.0382V22.4911C34.4984 22.4879 34.2937 22.4456 34.1215 22.3674C33.9461 22.2893 33.8064 22.1883 33.6927 22.0581C33.579 21.9311 33.4978 21.7813 33.4425 21.612C33.3873 21.4426 33.3613 21.2635 33.3613 21.0779C33.3613 20.8923 33.3906 20.71 33.4458 20.5374C33.5043 20.3648 33.5887 20.215 33.7024 20.0848C33.8162 19.9545 33.9623 19.8503 34.1378 19.7754C34.3132 19.7005 34.5244 19.6615 34.7648 19.6615H36.2982C36.5354 19.6615 36.7433 19.7005 36.922 19.7754C37.1006 19.8503 37.2468 19.9545 37.3605 20.0848C37.4742 20.215 37.5587 20.3648 37.6172 20.5374C37.6757 20.71 37.7016 20.8891 37.7016 21.0779C37.7016 21.2668 37.6724 21.4459 37.6172 21.6152C37.5587 21.7878 37.4742 21.9376 37.3605 22.0646C37.2468 22.1916 37.1039 22.2958 36.9284 22.3739C36.7563 22.4521 36.5483 22.4911 36.3112 22.4911V23.0382H38.085V18.017H39.6606V24.2756H33.4296V23.0382H34.7388H34.7355ZM34.742 18.2906V17.8086H36.3177V18.2906H37.6334V19.4563H33.4296V18.2906H34.7453H34.742ZM34.9402 21.0747C34.9402 21.1789 34.9695 21.2635 35.0279 21.3287C35.0864 21.3938 35.1709 21.4231 35.2748 21.4231H35.7816C35.8856 21.4231 35.9701 21.3905 36.0285 21.3287C36.087 21.2635 36.1195 21.1789 36.1195 21.0747C36.1195 20.9705 36.0903 20.8858 36.0285 20.8207C35.9701 20.7556 35.8856 20.723 35.7816 20.723H35.2748C35.1709 20.723 35.0897 20.7556 35.0279 20.8207C34.9695 20.8858 34.9402 20.9705 34.9402 21.0747Z" fill="#F5A200"/>
<path d="M17.1794 40.7715V41.8754H17.7674V40.7715H19.343V44.9721H17.7674V43.2496H17.1794V44.4218C16.978 44.4186 16.783 44.3925 16.5914 44.3469C16.3997 44.3013 16.2178 44.2395 16.0456 44.1581C15.8734 44.0767 15.7174 43.9822 15.5777 43.8715C15.4348 43.7608 15.3146 43.6338 15.2139 43.497C15.1327 43.6566 15.0157 43.7966 14.8695 43.9204C14.7201 44.0408 14.5544 44.1418 14.3725 44.2264C14.1905 44.3079 13.9956 44.373 13.7909 44.4186C13.5863 44.4642 13.3816 44.4902 13.1802 44.4935V43.191C13.3361 43.1812 13.4856 43.1519 13.6285 43.103C13.7714 43.0542 13.8981 42.9825 14.0086 42.8946C14.1191 42.8067 14.2068 42.6927 14.275 42.5592C14.3432 42.4257 14.3822 42.2662 14.392 42.0838H13.1802V40.7813H17.1794V40.7715ZM14.7558 44.7637V45.2457C14.7558 45.3694 14.7948 45.4671 14.8695 45.5452C14.9442 45.6201 15.045 45.6592 15.1684 45.6592H19.4145V47.0301H14.6908C14.4634 47.0301 14.2555 46.9943 14.0703 46.9194C13.8852 46.8445 13.7292 46.7435 13.5993 46.6133C13.4693 46.483 13.3686 46.3267 13.2939 46.1411C13.2224 45.9555 13.1834 45.7504 13.1834 45.5192V44.7637H14.7591H14.7558ZM15.9676 42.0741C15.9773 42.3769 16.0586 42.6048 16.2113 42.7579C16.3639 42.9109 16.5654 43.0151 16.809 43.0705V42.0741H15.9676Z" fill="#F5A200"/>
<path d="M20.074 43.0705H24.9341V42.0741H20.074V40.7715H26.5097V44.373H24.0797V44.8549H26.5097V47.0301H24.9341V46.1574H20.074V44.8549H22.504V44.373H20.074V43.0705Z" fill="#F5A200"/>
<path d="M32.1073 47.0271V44.3798H31.7922V47.0271H28.7514C28.524 47.0271 28.3161 46.9913 28.1309 46.9164C27.9457 46.8448 27.7898 46.7406 27.6566 46.6103C27.5266 46.4801 27.4259 46.3238 27.3512 46.1382C27.2797 45.9526 27.2407 45.7474 27.2407 45.5162V40.7686H29.9664V42.0711H28.6799V45.2427C28.6799 45.3078 28.6929 45.3664 28.7222 45.425C28.7481 45.4837 28.7839 45.5325 28.8294 45.5748C28.8716 45.6172 28.9236 45.653 28.9788 45.6823C29.0373 45.7083 29.0958 45.7246 29.1607 45.7246H30.353V40.7718H31.789V43.0773H32.1041V40.7718H33.5433V47.0304H32.1041L32.1073 47.0271Z" fill="#F5A200"/>
<path d="M35.6031 45.7931V45.2461C35.3659 45.2428 35.1612 45.2005 34.9858 45.1223C34.8136 45.0442 34.6707 44.9432 34.557 44.813C34.4465 44.686 34.362 44.5362 34.3068 44.3669C34.2516 44.1975 34.2256 44.0184 34.2256 43.8328C34.2256 43.6472 34.2548 43.4649 34.3101 43.2923C34.3685 43.1197 34.453 42.9699 34.5667 42.8397C34.6804 42.7094 34.8266 42.6052 35.002 42.5303C35.1775 42.4554 35.3854 42.4164 35.629 42.4164H37.1625C37.3996 42.4164 37.6075 42.4554 37.7862 42.5303C37.9649 42.6052 38.1111 42.7094 38.2248 42.8397C38.3385 42.9699 38.4262 43.1197 38.4814 43.2923C38.5367 43.4649 38.5659 43.644 38.5659 43.8328C38.5659 44.0217 38.5367 44.2008 38.4814 44.3734C38.423 44.546 38.3385 44.6957 38.2248 44.8227C38.1111 44.9497 37.9681 45.0539 37.7927 45.1321C37.6205 45.2102 37.4159 45.2493 37.1754 45.2493V45.7964H38.9493V40.7752H40.5249V47.0337H34.2938V45.7996H35.5998L35.6031 45.7931ZM35.6096 41.0455V40.5635H37.1852V41.0455H38.4977V42.2112H34.2938V41.0455H35.6096ZM35.8077 43.8296C35.8077 43.9338 35.837 44.0184 35.8987 44.0836C35.9572 44.1487 36.0384 44.178 36.1456 44.178H36.6524C36.7564 44.178 36.8408 44.1454 36.8993 44.0836C36.9578 44.0184 36.987 43.9338 36.987 43.8296C36.987 43.7254 36.9578 43.6407 36.8993 43.5756C36.8408 43.5105 36.7564 43.4812 36.6524 43.4812H36.1456C36.0384 43.4812 35.9572 43.5137 35.8987 43.5756C35.8402 43.6407 35.8077 43.7254 35.8077 43.8296Z" fill="#F5A200"/>
<path d="M41.6424 11.6379L41.5937 11.5988C41.2071 11.3058 40.645 11.3644 40.3364 11.7323C40.0278 12.097 40.0927 12.6343 40.4761 12.9274L40.5476 12.9827C46.2848 17.1964 50.0112 23.9954 50.0112 31.6705C50.0112 44.4546 39.6704 54.8193 26.9158 54.8193C14.1613 54.8193 3.82377 44.4513 3.82377 31.6672C3.82377 21.677 10.1393 13.1618 18.9889 9.91859L19.2521 9.82416C19.9733 10.0456 20.8862 10.3224 22.0135 10.6578C22.0135 10.6578 30.8273 14.7672 37.5912 8.03973C37.5912 8.03973 39.1084 6.51905 40.9017 5.30446C40.723 5.4282 37.1689 3.52654 36.9057 3.41257C33.9331 2.15891 31.1262 1.47183 27.8775 2.0254C25.5774 2.41941 23.4494 4.47086 21.5587 6.18365C24.4663 5.56822 29.0535 5.0635 34.4074 6.14783C30.7429 5.74731 21.1623 7.41778 21.1623 7.41778C16.4321 8.38815 12.1633 10.6252 8.71638 13.7577C9.88268 11.9472 11.9651 7.60013 9.03151 2.9111C9.03151 2.9111 8.15759 1.52719 7.56957 0C7.6313 0.153045 5.50012 2.35428 5.36368 2.52361C3.84001 4.42852 2.78092 6.32367 2.58925 8.77564C2.40082 11.1397 4.63596 13.8619 5.44165 15.8548C5.45139 15.8776 5.45789 15.9004 5.46764 15.9232C8.15435 10.394 8.45973 5.26539 8.45973 5.26539C8.75536 10.5047 7.16348 14.5099 6.31881 16.239C2.37808 20.8727 0 26.874 0 33.4386C0 48.1081 11.8644 60 26.5 60C41.1356 60 53 48.1081 53 33.4386C53 24.4122 48.507 16.4376 41.6424 11.6379Z" fill="url(#paint0_linear_497_635)"/>
</g>
<defs>
<linearGradient id="paint0_linear_497_635" x1="26.5" y1="11.0485" x2="26.5" y2="61.0029" gradientUnits="userSpaceOnUse">
<stop stop-color="#F5A200"/>
<stop offset="1" stop-color="#72AF2D"/>
</linearGradient>
<clipPath id="clip0_497_635">
<rect width="53" height="60" fill="white"/>
</clipPath>
</defs>
</svg>
