<svg width="331" height="53" viewBox="0 0 331 53" fill="none" xmlns="http://www.w3.org/2000/svg">
<path fill-rule="evenodd" clip-rule="evenodd" d="M20.0104 9.144C31.0288 9.144 40.0207 18.1313 40.0207 29.144C40.0207 40.1567 31.0288 49.144 20.0104 49.144C8.99192 49.144 0 40.1567 0 29.144C0 18.1313 8.99192 9.144 20.0104 9.144ZM20.0104 9.87171C30.6284 9.87171 39.2926 18.5315 39.2926 29.144C39.2926 39.7565 30.6284 48.4163 20.0104 48.4163C9.39237 48.4163 0.728091 39.7565 0.728091 29.144C0.728091 18.5315 9.38024 9.87171 20.0104 9.87171Z" fill="white"/>
<path fill-rule="evenodd" clip-rule="evenodd" d="M15.0229 13.862C14.7802 13.9105 14.5861 14.0803 14.3555 14.1773C14.1007 14.2865 13.8337 14.3835 13.5668 14.4684C13.3847 14.5291 13.1906 14.5412 13.0086 14.5897C12.8751 14.6261 12.7295 14.6504 12.6202 14.7353C12.4504 14.8565 12.2683 15.0021 12.1591 15.1961C12.0984 15.3053 12.0499 15.4872 12.1348 15.5721C12.2683 15.7055 12.4989 15.7419 12.6688 15.6934C12.9236 15.6328 13.142 15.4387 13.3483 15.281C13.4939 15.1719 13.5789 14.99 13.7245 14.8929C13.9672 14.7231 14.2342 14.5897 14.5133 14.4563C14.7317 14.3593 14.9744 14.3471 15.1807 14.2259C15.2535 14.1773 15.3263 14.0561 15.2899 13.9712C15.2535 13.8863 15.12 13.8499 15.0229 13.862ZM4.96315 33.11C4.87821 33.1464 4.78113 33.1949 4.75686 33.2798C4.70832 33.4011 4.70832 33.5588 4.75686 33.6801C4.79326 33.8135 4.90248 33.9105 4.99956 34.0076C5.10877 34.1046 5.23012 34.2501 5.3636 34.2137C5.48495 34.1774 5.52135 34.0076 5.52135 33.8863C5.53349 33.668 5.49708 33.4375 5.41214 33.2313C5.37574 33.1464 5.26652 33.11 5.18158 33.0858C5.10877 33.0615 5.03596 33.0858 4.97529 33.11H4.96315ZM3.93169 31.9821C3.73753 32.164 3.56764 32.3702 3.42202 32.5885C3.33708 32.7098 3.25214 32.8311 3.25214 32.9766C3.24 33.2677 3.28854 33.5467 3.36135 33.8256C3.38562 33.9105 3.42203 34.0197 3.49483 34.0318C3.60405 34.0439 3.71326 33.9712 3.77394 33.8863C3.90742 33.7043 3.98023 33.486 4.06517 33.2677C4.12585 33.1222 4.16225 33.0251 4.17439 32.8675C4.17439 32.6977 4.16225 32.4794 4.12585 32.3096C4.11371 32.2125 4.10158 32.1034 4.05304 32.0063C4.02877 31.97 3.98023 31.9578 3.95596 31.97L3.93169 31.9821ZM4.5263 31.412C4.42922 31.4484 4.34427 31.5455 4.30787 31.6546C4.24719 31.788 4.23506 31.9578 4.2836 32.1034C4.33214 32.261 4.45349 32.3823 4.5627 32.4915C4.65978 32.5885 4.75686 32.7462 4.89034 32.7219C5.01169 32.6977 5.06023 32.5279 5.09663 32.4066C5.14517 32.2247 5.16944 32.0306 5.13304 31.8487C5.09663 31.7031 5.01169 31.5455 4.87821 31.4606C4.78113 31.3999 4.64764 31.3878 4.53843 31.4242L4.5263 31.412ZM5.40001 31.8123C5.33933 32.0063 5.3636 32.2247 5.40001 32.4308C5.41214 32.5279 5.48495 32.6128 5.54562 32.6977C5.77619 32.9524 6.00675 33.2313 6.27371 33.4375C6.34652 33.4982 6.45574 33.4982 6.55282 33.486C6.60136 33.486 6.63776 33.4254 6.63776 33.3769C6.63776 33.1949 6.58922 33.013 6.52855 32.8311C6.46787 32.6613 6.37079 32.5036 6.26158 32.3581C6.14023 32.2004 5.99461 32.0549 5.83686 31.9093C5.76405 31.8487 5.69124 31.788 5.6063 31.7638C5.53349 31.7516 5.41214 31.7395 5.40001 31.8002V31.8123ZM5.14517 29.6898C5.06023 29.9202 5.0845 30.1628 5.10877 30.4054C5.1209 30.5267 5.19371 30.6358 5.27866 30.7207C5.55776 31.0361 5.84899 31.3271 6.18877 31.594C6.24944 31.6425 6.35866 31.6546 6.41933 31.6061C6.48001 31.5576 6.45574 31.4484 6.4436 31.3635C6.39506 31.1331 6.35866 30.8905 6.24944 30.6843C6.14023 30.466 5.94607 30.2962 5.78832 30.1143C5.65484 29.9566 5.53349 29.7868 5.3636 29.6655C5.30293 29.617 5.16944 29.6049 5.14517 29.6655V29.6898ZM3.53124 29.7868C3.26427 30.0779 3.07011 30.4175 2.85169 30.745C2.79101 30.842 2.70607 30.9512 2.70607 31.0724C2.69393 31.412 2.70607 31.7516 2.77888 32.0791C2.77888 32.1276 2.90023 32.1519 2.93663 32.1155C3.13079 31.8972 3.26427 31.6304 3.40989 31.3757C3.5191 31.1937 3.61618 30.9997 3.68899 30.8056C3.7254 30.6965 3.74967 30.5873 3.74967 30.4781C3.74967 30.2598 3.74967 30.0294 3.68899 29.8232C3.66472 29.7747 3.56764 29.7383 3.53124 29.7868ZM4.5627 29.1683C4.41708 29.1319 4.25933 29.1197 4.12585 29.1683C4.01663 29.2168 3.90742 29.3138 3.88315 29.4351C3.84674 29.5928 3.88315 29.7747 3.93169 29.9324C4.01663 30.1507 4.15012 30.3326 4.2836 30.5267C4.32 30.5873 4.35641 30.6965 4.42922 30.6843C4.51416 30.6843 4.57484 30.5873 4.61124 30.5024C4.69618 30.3205 4.76899 30.1143 4.8054 29.9081C4.8418 29.714 4.86607 29.4957 4.8054 29.3017C4.78113 29.2046 4.65978 29.1561 4.5627 29.144V29.1683ZM3.57978 27.2883C3.16719 27.6764 2.82742 28.1252 2.51191 28.5861C2.42697 28.7074 2.37843 28.865 2.35416 29.0106C2.31775 29.3138 2.30562 29.617 2.35416 29.9202C2.35416 29.9809 2.48764 29.9687 2.53618 29.9202C2.90023 29.4957 3.22787 29.0348 3.53124 28.574C3.61618 28.4405 3.70113 28.295 3.7254 28.1373C3.7618 27.8948 3.77394 27.6401 3.7254 27.3975C3.7254 27.3247 3.61618 27.2156 3.56764 27.2641L3.57978 27.2883ZM5.23012 27.5915C5.19371 27.919 5.16944 28.2586 5.19371 28.5861C5.20585 28.7195 5.26652 28.865 5.35147 28.9742C5.61843 29.3017 5.90967 29.617 6.23731 29.896C6.28585 29.9324 6.39506 29.9202 6.41933 29.8596C6.48001 29.7626 6.45574 29.6291 6.4436 29.52C6.4436 29.3017 6.4436 29.0712 6.39506 28.865C6.35866 28.7195 6.28585 28.5861 6.20091 28.4648C5.97034 28.1495 5.72765 27.8584 5.47281 27.5552C5.43641 27.5066 5.38787 27.4217 5.3272 27.4339C5.26652 27.4339 5.23012 27.5309 5.23012 27.5915ZM4.67191 27.0094C4.51416 26.9609 4.33214 26.9487 4.17439 26.9851C4.07731 27.0215 3.98023 27.1064 3.95596 27.2156C3.91955 27.4581 3.95596 27.7007 4.01663 27.9433C4.07731 28.1858 4.16225 28.4284 4.32 28.6346C4.36854 28.6952 4.50203 28.6952 4.53843 28.6346C4.68405 28.4527 4.74472 28.2101 4.79326 27.9918C4.85394 27.7492 4.92675 27.4945 4.89034 27.2398C4.87821 27.1307 4.75686 27.0458 4.65978 27.0094H4.67191ZM4.0045 24.8869C3.88315 24.8626 3.74967 24.9596 3.65259 25.0445C3.39776 25.2386 3.19146 25.4448 2.98517 25.6752C2.81528 25.8572 2.65753 26.0512 2.53618 26.2574C2.45124 26.4029 2.42697 26.5364 2.4027 26.7062C2.37843 26.876 2.36629 27.0821 2.42697 27.2519C2.45124 27.3005 2.52405 27.2883 2.57259 27.2519C2.69393 27.1792 2.79101 27.07 2.90023 26.9609C3.15506 26.694 3.40989 26.4393 3.64045 26.1482C3.7618 26.0027 3.89528 25.8329 3.96809 25.651C4.0409 25.469 4.05304 25.275 4.06517 25.0809C4.06517 25.0082 4.06517 24.899 4.0045 24.8869ZM5.66697 25.372C5.66697 25.372 5.49708 25.3356 5.48495 25.4084C5.40001 25.7844 5.38787 26.1846 5.41214 26.5727C5.41214 26.7547 5.52135 26.9245 5.61843 27.0821C5.78832 27.3732 5.98248 27.6522 6.21304 27.8826C6.28585 27.9554 6.39506 28.0039 6.4436 27.9554C6.48001 27.919 6.49214 27.6886 6.49214 27.5673C6.46787 27.2883 6.45574 27.0215 6.4072 26.7547C6.38293 26.6334 6.33439 26.5121 6.27371 26.4029C6.09169 26.0512 5.90967 25.6874 5.66697 25.3841V25.372ZM4.82967 24.5837C4.69618 24.5715 4.53843 24.5958 4.42922 24.6928C4.33214 24.7777 4.30787 24.9233 4.29573 25.0567C4.29573 25.4084 4.33214 25.7601 4.39281 26.1119C4.40495 26.2089 4.41708 26.3666 4.51416 26.3908C4.59911 26.4272 4.67191 26.2938 4.73259 26.221C4.86607 26.0633 4.99956 25.8935 5.09663 25.6995C5.19371 25.5054 5.27866 25.2992 5.30293 25.0931C5.31506 24.9839 5.30293 24.8505 5.21798 24.7656C5.1209 24.6564 4.96315 24.5958 4.82967 24.5837ZM4.8054 22.449C4.50203 22.5824 4.16225 22.7644 3.91955 22.9948C3.61618 23.2616 3.34922 23.5042 3.11865 23.8317C2.97304 24.05 2.91236 24.3411 2.87596 24.6079C2.87596 24.6686 2.98517 24.7049 3.04584 24.6807C3.22787 24.6079 3.37349 24.4624 3.53124 24.329C3.79821 24.1106 4.07731 23.9045 4.32 23.6498C4.51416 23.4314 4.67191 23.1646 4.81753 22.9099C4.89034 22.7886 4.98742 22.6552 4.97529 22.5218C4.97529 22.4369 4.87821 22.4126 4.8054 22.449ZM5.98248 23.6983C5.8854 23.8802 5.82473 24.0864 5.81259 24.2926C5.81259 24.5109 5.83686 24.7292 5.90967 24.9354C6.00675 25.2022 6.1645 25.4569 6.29798 25.6995C6.38293 25.845 6.4436 26.027 6.58922 26.1119C6.64989 26.1482 6.75911 26.0633 6.78338 26.0027C6.85619 25.8329 6.88046 25.6267 6.88046 25.4327C6.88046 25.2265 6.85619 25.0203 6.78338 24.8262C6.69843 24.5958 6.55282 24.3896 6.43147 24.1834C6.33439 24.0257 6.24944 23.8438 6.11596 23.7104C6.09169 23.674 6.00675 23.674 5.98248 23.7104V23.6983ZM5.59416 22.5461C5.42428 22.5703 5.25439 22.6552 5.16944 22.8008C5.0481 22.9948 5.02383 23.2374 4.99956 23.4557C4.97529 23.674 4.97529 23.8923 5.04809 24.0985C5.06023 24.1592 5.16944 24.1713 5.21798 24.147C5.44855 23.9772 5.6427 23.7589 5.81259 23.5285C5.93394 23.3829 6.05529 23.2131 6.06742 23.0191C6.07956 22.8978 6.00675 22.7765 5.9218 22.6916C5.83686 22.6067 5.70338 22.5461 5.58203 22.5582L5.59416 22.5461ZM5.89753 20.4114C5.73978 20.6904 5.55776 20.9572 5.35147 21.1877C5.20585 21.3575 5.06023 21.5151 4.87821 21.6485C4.58697 21.8547 4.29573 22.0488 3.96809 22.1822C3.90742 22.2065 3.79821 22.1337 3.82248 22.073C3.95596 21.6971 4.08944 21.2847 4.38068 21.0057C4.74472 20.6661 4.99956 20.5812 5.44854 20.375C5.53349 20.3387 5.75192 20.278 5.82473 20.2659C5.8854 20.2659 5.94607 20.3629 5.9218 20.4114H5.89753ZM6.71057 20.5085C6.62563 20.4599 6.49214 20.4599 6.43147 20.5327C6.23731 20.7268 6.06742 20.9815 5.97034 21.2362C5.87326 21.503 5.83686 21.8062 5.87326 22.0973C5.87326 22.1701 6.01888 22.2065 6.07956 22.1822C6.4072 22.0003 6.71057 21.7577 6.97754 21.4909C7.11102 21.3696 7.29304 21.1998 7.2445 21.03C7.18383 20.7874 6.91686 20.6419 6.69843 20.5206L6.71057 20.5085ZM7.13529 21.8183C6.91686 22.0124 6.78338 22.2914 6.67416 22.5582C6.58922 22.7765 6.56495 23.0191 6.58922 23.2495C6.63776 23.6619 6.73484 24.0864 6.91686 24.4624C6.95327 24.5351 7.12315 24.5473 7.17169 24.4624C7.32945 24.2441 7.41439 23.9894 7.45079 23.7225C7.51147 23.3587 7.49933 22.9948 7.4872 22.631C7.4872 22.4005 7.47506 22.1458 7.37799 21.9396C7.34158 21.8547 7.2081 21.7577 7.13529 21.8183ZM7.49933 18.5679C7.26877 18.8711 6.929 19.0894 6.61349 19.3199C6.49214 19.4169 6.34652 19.4654 6.20091 19.526C5.849 19.6595 5.49708 19.8293 5.10877 19.8899C5.03596 19.8899 4.97529 19.8171 5.01169 19.7444C5.18158 19.3926 5.38787 19.053 5.67911 18.7862C5.83686 18.6407 6.06742 18.6043 6.27371 18.5436C6.63776 18.4466 7.00181 18.386 7.36585 18.3981C7.45079 18.3981 7.54787 18.5072 7.49933 18.5679ZM8.54293 19.8293C8.30023 20.0476 8.13035 20.3265 7.97259 20.6176C7.87551 20.7995 7.82697 21.0057 7.82697 21.1998C7.82697 21.6485 7.85124 22.073 7.97259 22.5097C7.99686 22.5946 8.14248 22.6067 8.19102 22.5461C8.40945 22.2671 8.54293 21.9032 8.68855 21.5758C8.77349 21.3696 8.87057 21.1755 8.88271 20.9572C8.90698 20.5934 8.90698 20.1931 8.8099 19.8414C8.78563 19.7565 8.62788 19.7686 8.55507 19.8293H8.54293ZM8.16675 18.6285C8.08181 18.58 7.94832 18.58 7.87551 18.6528C7.66922 18.8347 7.5236 19.0773 7.40226 19.3199C7.26877 19.5746 7.14742 19.8414 7.12315 20.1203C7.12315 20.1931 7.23237 20.278 7.30518 20.2538C7.56001 20.1689 7.7663 19.9869 7.98473 19.8293C8.16675 19.708 8.34877 19.5746 8.48226 19.4169C8.5672 19.3199 8.68855 19.1864 8.64001 19.0652C8.55507 18.8711 8.36091 18.7377 8.16675 18.6285ZM9.30743 16.6637C9.05259 16.979 8.72495 17.2337 8.39731 17.4763C8.21529 17.6097 7.98473 17.6946 7.7663 17.7431C7.35372 17.8523 6.94113 17.9251 6.51641 17.9493C6.46787 17.9493 6.41933 17.8523 6.45574 17.8038C6.71057 17.4763 7.00181 17.1488 7.34158 16.8941C7.53574 16.7486 7.77844 16.6758 8.009 16.6394C8.38518 16.5667 8.77349 16.5424 9.16181 16.5545C9.22248 16.5545 9.3681 16.6152 9.3317 16.6637H9.30743ZM10.2418 17.8887C9.96271 18.1676 9.76855 18.5194 9.56226 18.8711C9.46518 19.0409 9.3681 19.2228 9.35597 19.4169C9.3317 19.8293 9.35597 20.2659 9.45304 20.6661C9.46518 20.7389 9.6108 20.7995 9.65934 20.7389C9.90203 20.3993 10.0477 19.9869 10.2175 19.5988C10.3025 19.4169 10.3996 19.235 10.4238 19.0288C10.4602 18.6892 10.4724 18.3496 10.4238 18.01C10.4238 17.9372 10.3025 17.8402 10.2539 17.8887H10.2418ZM8.73709 18.4466C8.97979 18.4102 9.22248 18.3253 9.42877 18.1919C9.63507 18.0706 9.81709 17.8887 9.97484 17.7068C10.0355 17.634 10.0962 17.5248 10.0841 17.4399C10.0841 17.3186 10.0112 17.1974 9.93844 17.1003C9.87776 17.0276 9.79282 16.9912 9.70788 16.9669C9.6108 16.9548 9.50158 16.9427 9.42877 17.0033C9.22248 17.1731 9.05259 17.3914 8.91911 17.6219C8.78563 17.8402 8.65214 18.0827 8.60361 18.3374C8.60361 18.3981 8.68855 18.4587 8.74922 18.4466H8.73709ZM11.2247 15.1476C11.0184 15.4387 10.6908 15.6206 10.3996 15.8268C10.2661 15.9239 10.1326 16.033 9.96271 16.0573C9.48945 16.1179 8.99192 16.1179 8.51866 16.0815C8.44585 16.0815 8.3245 15.9724 8.37304 15.9117C8.64001 15.6206 8.97979 15.4023 9.30743 15.184C9.45304 15.087 9.62293 15.0021 9.80496 14.9778C10.2054 14.9293 10.6059 14.9293 11.0063 14.9778C11.1034 14.9778 11.2854 15.0749 11.2369 15.1476H11.2247ZM11.7951 16.5909C11.4796 16.8578 11.2369 17.1974 10.9942 17.537C10.9214 17.6461 10.885 17.7795 10.8728 17.9008C10.8607 18.3011 10.8486 18.7013 10.9335 19.1015C10.9335 19.1622 11.0912 19.1986 11.1277 19.1379C11.3825 18.8105 11.5645 18.4223 11.7344 18.0342C11.8072 17.8644 11.8193 17.6704 11.8557 17.4763C11.9043 17.2216 11.9407 16.9548 11.9286 16.688C11.9286 16.6152 11.8557 16.5182 11.7951 16.5667V16.5909ZM11.4674 15.5357C11.3097 15.5843 11.1519 15.6813 11.0306 15.8026C10.8 16.0451 10.618 16.3362 10.4481 16.6031C10.3996 16.688 10.3268 16.7971 10.3389 16.8941C10.3389 16.9548 10.4481 16.979 10.5088 16.979C10.6544 16.979 10.8121 16.9305 10.9456 16.8578C11.2126 16.7001 11.4553 16.4939 11.6859 16.2756C11.7708 16.2028 11.8679 16.1058 11.8679 15.9845C11.8679 15.8511 11.7708 15.7177 11.6859 15.6085C11.6373 15.5479 11.5402 15.4994 11.4553 15.5236L11.4674 15.5357ZM13.8701 15.2689C13.5304 15.4751 13.227 15.7662 12.9357 16.033C12.8508 16.1179 12.7537 16.2149 12.7295 16.3362C12.6445 16.8092 12.6081 17.2823 12.6445 17.7674C12.6445 17.828 12.778 17.8887 12.8265 17.8523C13.1178 17.6219 13.3726 17.3429 13.591 17.0397C13.7002 16.9063 13.7488 16.7365 13.7973 16.5667C13.9065 16.1664 14.0036 15.7662 14.0279 15.3659C14.0279 15.3053 13.9187 15.2325 13.858 15.2568L13.8701 15.2689ZM13.4575 13.8256C13.227 14.0682 12.8872 14.2016 12.5838 14.3471C12.4868 14.3957 12.3775 14.3835 12.2683 14.3835C11.6737 14.3835 11.067 14.432 10.4602 14.3593C10.3996 14.3593 10.351 14.2137 10.3996 14.1773C10.5937 13.9833 10.8364 13.862 11.0791 13.7407C11.2247 13.6801 11.3825 13.6437 11.5402 13.6437C12.1106 13.6194 12.6688 13.6073 13.2391 13.6679C13.3241 13.6679 13.5061 13.765 13.4454 13.8377L13.4575 13.8256Z" fill="white"/>
<path fill-rule="evenodd" clip-rule="evenodd" d="M10.9093 38.6406C10.7879 38.5315 10.6787 38.4344 10.5937 38.3495C10.5088 38.2646 10.4239 38.1797 10.3511 38.0948C10.2904 38.0221 10.2418 37.9493 10.2054 37.8644C10.1569 37.7795 10.1205 37.6461 10.0719 37.4642C10.0355 37.3186 10.0598 37.258 10.1448 37.2822C10.2418 37.2944 10.3268 37.3671 10.4239 37.5005C10.5331 37.6582 10.6302 37.7916 10.7151 37.8887C10.8122 37.9857 10.9335 38.1312 11.1034 38.3132C11.334 38.5557 11.4068 38.7134 11.3097 38.774C11.2126 38.8468 11.0791 38.7983 10.9093 38.6406ZM11.4553 39.7686C11.5403 39.9384 11.5403 40.0475 11.4553 40.0839C11.3704 40.1203 11.2733 40.0839 11.1641 39.9748C11.0306 39.8292 10.7636 39.5503 10.3875 39.1743C9.99914 38.7862 9.72004 38.5193 9.52588 38.3617C9.36813 38.2283 9.23464 38.1434 9.10116 38.0827C8.97981 38.0342 8.83419 37.8159 8.66431 37.4399C8.55509 37.1731 8.55509 37.0639 8.67644 37.1124C8.79779 37.1488 8.907 37.2337 8.99195 37.3429C9.06476 37.4399 9.1497 37.5369 9.24678 37.6461C9.34386 37.7431 9.45307 37.8644 9.58656 38.0099C9.7079 38.1434 9.88993 38.3253 10.1448 38.5557C10.3875 38.7983 10.5937 38.956 10.7515 39.0287C10.8971 39.1015 11.0427 39.2228 11.1884 39.3926C11.334 39.5624 11.4311 39.6837 11.4675 39.7565L11.4553 39.7686ZM12.2684 42.17C12.414 42.3762 12.4261 42.5218 12.3169 42.5945C12.2077 42.6673 12.0742 42.6188 11.9043 42.449L11.1762 41.7213L10.3753 42.5339C10.1933 42.7158 9.98701 42.8735 9.78071 42.9827C9.57442 43.0918 9.44094 43.1282 9.38026 43.0797C9.33172 43.0312 9.35599 42.922 9.48948 42.7643C9.61083 42.5945 9.73217 42.4611 9.82925 42.352L12.2805 39.8656C12.3897 39.7565 12.4382 39.6594 12.4261 39.5745C12.4261 39.4775 12.3776 39.3562 12.3048 39.1864C12.2562 39.0409 12.2562 38.956 12.3048 38.9196C12.3654 38.8832 12.4625 38.956 12.6203 39.1258C12.6567 39.1622 12.7173 39.2471 12.8023 39.3926C12.8872 39.526 12.9479 39.6473 12.9843 39.7322C13.045 39.8656 13.0329 39.9505 12.9479 39.9869C12.863 40.0354 12.7538 40.1203 12.6324 40.2416L11.3461 41.5515C11.3461 41.5515 11.4675 41.6485 11.5524 41.697C11.6373 41.7455 11.7102 41.7819 11.783 41.7819C11.8315 41.7819 11.9164 41.8426 12.0135 41.9275C12.1106 42.0245 12.1955 42.1094 12.2562 42.1943L12.2684 42.17ZM9.90206 40.7146C9.65936 40.9572 9.36813 41.0421 9.01622 40.9693C8.67644 40.8965 8.38521 40.751 8.15464 40.5206C7.92408 40.2901 7.77846 40.0112 7.71779 39.6716C7.65711 39.332 7.74206 39.0409 7.98476 38.7983C8.3124 38.483 8.64004 38.3981 8.97981 38.58C9.31959 38.7619 9.48948 38.8468 9.48948 38.8347C9.56229 38.8347 9.59869 38.7983 9.57442 38.7498C9.55015 38.6891 9.55015 38.6528 9.57442 38.6285C9.64723 38.5557 9.74431 38.5921 9.86566 38.7377C9.98701 38.8832 10.0355 38.9924 10.0355 39.053C10.0355 39.1015 10.0113 39.1379 9.97487 39.15C9.93847 39.15 9.90206 39.1864 9.86566 39.2228C9.86566 39.2228 9.9506 39.3926 10.1205 39.7201C10.2904 40.0475 10.2176 40.375 9.88993 40.7025L9.90206 40.7146ZM9.35599 43.9166C9.50161 44.1349 9.51375 44.2804 9.40453 44.3532C9.29532 44.4138 9.1497 44.3653 8.99195 44.2076L7.18386 42.4369C7.05037 42.3035 6.95329 42.17 6.89262 42.0124C6.83194 41.8547 6.89262 41.7092 7.03824 41.5515L7.41442 41.1755C7.5115 41.0785 7.5479 41.0057 7.53577 40.9329C7.52363 40.8602 7.47509 40.7631 7.39015 40.6418C7.32947 40.5448 7.3052 40.4599 7.3052 40.375C7.3052 40.2901 7.42655 40.3386 7.65711 40.5206C7.74206 40.5933 7.81487 40.654 7.87554 40.7267C7.94835 40.7995 8.00903 40.8723 8.0697 40.9572C8.17891 41.1027 8.20318 41.1998 8.14251 41.2361C8.0697 41.2725 7.99689 41.3332 7.89981 41.4302L7.39015 41.9396C7.39015 41.9396 7.32947 42.0366 7.32947 42.0851C7.32947 42.1458 7.36588 42.1943 7.40228 42.2307L8.3488 43.1525C8.3488 43.1525 8.47015 43.2616 8.54296 43.3223C8.61577 43.3829 8.68858 43.4193 8.77352 43.4314C8.85846 43.4435 8.95554 43.5042 9.07689 43.6133C9.19824 43.7225 9.29532 43.8317 9.35599 43.9166ZM9.53802 40.3386C9.69577 40.181 9.76858 39.999 9.75644 39.7807C9.75644 39.5624 9.65936 39.3683 9.48948 39.1985C9.31959 39.0287 9.13757 38.956 8.91914 38.9438C8.70071 38.9438 8.51869 39.0166 8.36094 39.1743C8.21532 39.3198 8.14251 39.5018 8.14251 39.7201C8.14251 39.9384 8.22745 40.1324 8.38521 40.2901C8.55509 40.4599 8.74925 40.5448 8.96768 40.5448C9.18611 40.5448 9.38026 40.472 9.52588 40.3265L9.53802 40.3386ZM23.3353 44.9111C23.3353 45.0081 23.2383 45.0688 23.0684 45.0809C22.8985 45.0809 22.7165 45.0809 22.5223 45.0688C22.2917 45.0324 22.0005 45.0203 21.6607 44.996C21.321 44.9717 20.8962 44.9475 20.3866 44.9232C19.8405 44.8868 19.4279 44.8747 19.1488 44.8747C18.8697 44.8747 18.7241 44.8747 18.712 44.8747C18.5299 44.8747 18.3479 44.9111 18.178 44.9596C18.0081 45.0081 17.6684 44.9111 17.1466 44.6807C16.9281 44.5836 16.8553 44.5109 16.9281 44.4623C17.0131 44.4138 17.1587 44.3896 17.3771 44.4017C17.5834 44.4138 17.7533 44.4381 17.8989 44.4502C18.0445 44.4745 18.2872 44.4866 18.627 44.523C18.712 44.523 18.8818 44.5472 19.1245 44.5594C19.3672 44.5715 19.6463 44.5836 19.9497 44.6079L19.9983 43.7468L19.161 43.7104C18.9789 43.7104 18.809 43.6619 18.6634 43.5891C18.5178 43.5163 18.445 43.3708 18.4571 43.1525L18.4935 42.2792C18.4935 42.1458 18.4693 42.0488 18.4207 42.0124C18.3601 41.9639 18.263 41.9275 18.1052 41.8911C17.996 41.8668 17.9232 41.8183 17.8625 41.7455C17.8018 41.6728 17.9232 41.6364 18.2266 41.6243C18.3358 41.6243 18.445 41.6243 18.5421 41.6243C18.6392 41.6243 18.7362 41.6485 18.8333 41.6728C19.0153 41.7092 19.1003 41.7698 19.076 41.8304C19.0517 41.9032 19.0396 42.0002 19.0275 42.1337L18.9911 43.201C18.9911 43.2737 19.0032 43.3223 19.0517 43.3465C19.1003 43.3829 19.1488 43.395 19.1974 43.395L20.8113 43.4678C20.872 43.4678 20.9569 43.4678 21.054 43.4678C21.1511 43.4678 21.2481 43.4314 21.321 43.3829C21.3938 43.3344 21.503 43.3223 21.6729 43.3223C21.8428 43.3223 21.9762 43.3344 22.0976 43.3708C22.3524 43.4435 22.4616 43.5406 22.4252 43.674C22.3888 43.8074 22.2432 43.868 22.0126 43.8559L20.5201 43.7831L20.4715 44.6443C20.787 44.6443 21.0783 44.6685 21.321 44.6807C21.5637 44.6807 21.7214 44.6807 21.7578 44.6685C22.0248 44.5958 22.3646 44.5715 22.7771 44.6079C23.1776 44.6564 23.3717 44.7534 23.3475 44.9111H23.3353ZM21.5151 46.7425C21.4908 47.1064 21.321 47.3853 21.0054 47.5794C20.6899 47.7856 20.3502 47.8705 19.9861 47.8462C19.6342 47.8341 19.3066 47.7007 19.0153 47.4702C18.7241 47.2398 18.5785 46.9366 18.5906 46.5848C18.6149 46.0997 18.8212 45.7965 19.2095 45.6995C19.5978 45.6024 19.792 45.5418 19.792 45.5418C19.8648 45.4811 19.8769 45.4326 19.8162 45.4084C19.7677 45.3841 19.7313 45.3599 19.7313 45.3235C19.7313 45.2143 19.8405 45.1779 20.0589 45.2022C20.2774 45.2264 20.4108 45.275 20.4594 45.3356C20.4836 45.3841 20.4837 45.4205 20.4715 45.4448C20.4715 45.4811 20.4594 45.5175 20.4472 45.5782C20.4472 45.5782 20.6293 45.6509 20.9933 45.7965C21.3574 45.9299 21.5272 46.2452 21.503 46.7304L21.5151 46.7425ZM20.9569 46.7061C20.9569 46.4757 20.8962 46.2695 20.7506 46.0997C20.5929 45.9178 20.3744 45.8207 20.0953 45.8086C19.8162 45.7965 19.5978 45.8693 19.4279 46.0269C19.258 46.1846 19.1731 46.3908 19.161 46.6212C19.161 46.8517 19.2216 47.0457 19.3672 47.2276C19.5129 47.3975 19.7313 47.4945 20.0104 47.5066C20.3016 47.5187 20.5201 47.446 20.6899 47.3004C20.8598 47.1427 20.9448 46.9487 20.9569 46.7183V46.7061ZM29.694 39.9384C29.5241 39.7686 29.3057 39.6716 29.0387 39.6594C28.7839 39.6594 28.5533 39.7443 28.3592 39.9384C28.165 40.1203 28.0679 40.3508 28.0679 40.6055C28.0679 40.8602 28.1529 41.0906 28.3592 41.2847C28.5169 41.4545 28.7353 41.5272 29.0023 41.5394C29.2693 41.5394 29.4998 41.4545 29.6819 41.2604C29.876 41.0663 29.9731 40.848 29.961 40.5812C29.961 40.3265 29.8639 40.1082 29.694 39.9384ZM33.9655 40.5327C34.196 40.3871 34.3416 40.375 34.4023 40.4842C34.463 40.5933 34.4145 40.7389 34.2567 40.9087L32.4243 42.7765C32.2909 42.9099 32.1452 43.0069 31.9996 43.0676C31.854 43.1282 31.6962 43.0797 31.5385 42.922L31.0288 42.4126C30.9318 42.3156 30.8468 42.2671 30.774 42.2913C30.7012 42.3035 30.6041 42.352 30.4828 42.449C30.3978 42.4975 30.3129 42.5339 30.2158 42.5339C30.1309 42.5339 30.1794 42.4126 30.3614 42.1822C30.4342 42.0973 30.507 42.0245 30.5798 41.9517C30.6527 41.8911 30.7255 41.8183 30.8104 41.7698C30.956 41.6606 31.0531 41.6364 31.0895 41.697C31.1259 41.7698 31.1866 41.8426 31.2715 41.9396L31.9268 42.5945C31.9268 42.5945 32.0239 42.6552 32.0846 42.6552C32.1452 42.6431 32.1938 42.6188 32.2302 42.5703L33.201 41.5757C33.201 41.5757 33.3102 41.4545 33.3709 41.3817C33.4315 41.3089 33.4679 41.2361 33.4801 41.1512C33.4801 41.0663 33.5529 40.9693 33.6621 40.848C33.7713 40.7267 33.8805 40.6297 33.9655 40.5691V40.5327ZM30.4706 38.1555C30.4706 38.1555 30.4464 38.1919 30.4221 38.204C30.41 38.2161 30.3978 38.2283 30.3978 38.2283C30.3493 38.301 30.3007 38.3738 30.2522 38.4344C30.2158 38.4951 30.1915 38.5315 30.1915 38.5315C30.1673 38.5679 30.1187 38.6406 30.058 38.7498C29.9974 38.8589 29.8032 38.9802 29.4634 39.1258C29.3785 39.1622 29.3057 39.1622 29.2329 39.1258C29.1722 39.0894 29.2329 38.9681 29.4756 38.774C29.5848 38.6891 29.7061 38.5679 29.8518 38.4102C29.9974 38.2525 30.143 38.0948 30.2765 37.9372L29.9124 37.5854C29.8032 37.4763 29.7061 37.4278 29.6091 37.4399C29.512 37.4399 29.3785 37.4884 29.2207 37.5733C29.0751 37.6218 28.9902 37.6218 28.9538 37.5612C28.9174 37.5005 28.9902 37.4035 29.1601 37.2458C29.1965 37.2095 29.2814 37.1488 29.427 37.0639C29.5605 36.979 29.6819 36.9184 29.7668 36.882C29.9003 36.8213 29.9852 36.8335 30.0216 36.9184C30.0702 37.0033 30.1551 37.1124 30.2765 37.2337L32.57 39.4896C32.7641 39.6837 32.9097 39.8777 33.0311 40.0839C33.1403 40.2901 33.1767 40.4235 33.1282 40.4842C33.0796 40.5327 32.9704 40.4963 32.8127 40.375C32.6428 40.2537 32.5093 40.1324 32.4001 40.0354L31.5628 39.2107C31.5628 39.2107 31.5264 39.2471 31.5142 39.2592C31.5142 39.2713 31.49 39.2834 31.49 39.2956C31.4414 39.3683 31.3929 39.4411 31.3443 39.5018C31.3079 39.5624 31.2837 39.5988 31.2837 39.5988C31.2594 39.6352 31.2109 39.7079 31.1502 39.8171C31.0895 39.9263 30.8832 40.0475 30.5556 40.1931C30.5313 40.1931 30.5192 40.2052 30.4949 40.2173C30.4706 40.2173 30.4585 40.2173 30.4342 40.2295C30.4585 40.4478 30.4342 40.6661 30.325 40.8844C30.2279 41.1027 30.1066 41.2968 29.9367 41.4666C29.6819 41.7213 29.3664 41.879 28.978 41.9517C28.6019 42.0245 28.2621 41.9153 27.983 41.6364C27.5947 41.2483 27.4976 40.8723 27.6917 40.4963C27.8859 40.1203 27.9708 39.9384 27.9708 39.9384C27.9708 39.8414 27.9344 39.805 27.8616 39.8292C27.801 39.8535 27.7524 39.8535 27.7282 39.8292C27.6432 39.7443 27.6917 39.623 27.8616 39.4775C28.0315 39.3198 28.165 39.2592 28.25 39.2834C28.2985 39.2956 28.3349 39.3198 28.3349 39.3562C28.3349 39.3926 28.3713 39.4411 28.4198 39.4775C28.4198 39.4775 28.6019 39.3926 28.9659 39.2228C29.33 39.053 29.7061 39.15 30.0823 39.526C30.1551 39.5988 30.2158 39.6716 30.2643 39.7565C30.3129 39.8414 30.3493 39.9263 30.3735 40.0112C30.3857 39.9869 30.4221 39.9626 30.4464 39.9263C30.4828 39.902 30.507 39.8656 30.5434 39.8414C30.6405 39.7565 30.774 39.6352 30.9196 39.4775C31.0774 39.3198 31.2109 39.1622 31.3443 39.0045L30.4706 38.1312V38.1555Z" fill="white"/>
<path fill-rule="evenodd" clip-rule="evenodd" d="M24.9856 13.862C25.2283 13.9105 25.4225 14.0803 25.653 14.1773C25.9079 14.2865 26.1748 14.3835 26.4418 14.4684C26.6238 14.5291 26.818 14.5412 27 14.5897C27.1335 14.6261 27.2791 14.6504 27.4005 14.7353C27.5704 14.8565 27.7524 15.0021 27.8495 15.1961C27.9101 15.3053 27.9587 15.4872 27.8737 15.5721C27.7402 15.7055 27.5218 15.7419 27.3398 15.6934C27.085 15.6328 26.8665 15.4387 26.6602 15.281C26.5146 15.1719 26.4297 14.99 26.2841 14.8929C26.0414 14.7231 25.7744 14.5897 25.4953 14.4563C25.289 14.3593 25.0342 14.3471 24.8279 14.2259C24.7551 14.1773 24.6823 14.0561 24.7187 13.9712C24.7551 13.8863 24.9007 13.8499 24.9856 13.862ZM35.0454 33.11C35.1304 33.1464 35.2274 33.1949 35.2517 33.2798C35.3003 33.4011 35.3003 33.5588 35.2517 33.6801C35.2153 33.8135 35.1182 33.9105 35.009 34.0076C34.8998 34.1046 34.7785 34.2501 34.645 34.2137C34.5236 34.1774 34.4872 34.0076 34.4872 33.8863C34.4751 33.668 34.5115 33.4375 34.5964 33.2313C34.6328 33.1464 34.7421 33.11 34.827 33.0858C34.8877 33.0615 34.9726 33.0858 35.0333 33.11H35.0454ZM36.0769 31.9821C36.271 32.164 36.4409 32.3702 36.5865 32.5885C36.6715 32.7098 36.7564 32.8311 36.7686 32.9766C36.7807 33.2677 36.72 33.5467 36.6594 33.8256C36.6351 33.9105 36.5987 34.0197 36.5137 34.0318C36.4045 34.0439 36.2953 33.9712 36.2346 33.8863C36.1012 33.7043 36.0283 33.486 35.9434 33.2677C35.8827 33.1222 35.8463 33.0251 35.8342 32.8675C35.8342 32.6977 35.8463 32.4794 35.8827 32.3096C35.907 32.2125 35.907 32.1034 35.9555 32.0063C35.9677 31.97 36.0283 31.9578 36.0526 31.97L36.0769 31.9821ZM35.4823 31.412C35.5794 31.4484 35.6643 31.5455 35.7007 31.6546C35.7492 31.788 35.7735 31.9578 35.7371 32.1034C35.6886 32.261 35.5672 32.3823 35.4459 32.4915C35.3488 32.5885 35.2517 32.7462 35.1182 32.7219C34.9969 32.6977 34.9483 32.5279 34.9119 32.4066C34.8634 32.2247 34.8391 32.0306 34.8877 31.8487C34.9241 31.7031 35.009 31.5455 35.1425 31.4606C35.2396 31.3999 35.3731 31.3878 35.4823 31.4242V31.412ZM34.6086 31.8123C34.6692 32.0063 34.645 32.2247 34.6086 32.4308C34.5964 32.5279 34.5236 32.6128 34.4629 32.6977C34.2324 32.9524 34.0018 33.2313 33.7349 33.4375C33.662 33.4982 33.5528 33.4982 33.4558 33.486C33.4072 33.486 33.3708 33.4254 33.3708 33.3769C33.3708 33.1949 33.4194 33.013 33.48 32.8311C33.5407 32.6613 33.6256 32.5036 33.7349 32.3581C33.8562 32.2004 34.0018 32.0549 34.1596 31.9093C34.2324 31.8487 34.3052 31.788 34.4023 31.7638C34.4751 31.7516 34.5843 31.7395 34.6086 31.8002V31.8123ZM34.8755 29.6898C34.9483 29.9202 34.9362 30.1628 34.9119 30.4054C34.8998 30.5267 34.827 30.6358 34.7421 30.7207C34.4629 31.0361 34.1717 31.3271 33.8319 31.594C33.7713 31.6425 33.6621 31.6546 33.6014 31.6061C33.5407 31.5576 33.565 31.4484 33.5771 31.3635C33.6135 31.1331 33.6621 30.8905 33.7713 30.6843C33.8805 30.466 34.0746 30.2962 34.2324 30.1143C34.3659 29.9566 34.4872 29.7868 34.6571 29.6655C34.7178 29.617 34.8513 29.6049 34.8755 29.6655V29.6898ZM36.4773 29.7868C36.7443 30.0779 36.9385 30.4175 37.1569 30.745C37.2176 30.842 37.3025 30.9512 37.3025 31.0724C37.3268 31.412 37.3025 31.7516 37.2297 32.0791C37.2297 32.1276 37.1083 32.1519 37.0719 32.1155C36.8778 31.8972 36.7443 31.6304 36.5987 31.3757C36.4895 31.1937 36.3924 30.9997 36.3196 30.8056C36.2832 30.6965 36.2468 30.5873 36.2468 30.4781C36.2468 30.2598 36.2468 30.0294 36.3196 29.8232C36.3317 29.7747 36.4409 29.7383 36.4773 29.7868ZM35.4459 29.1683C35.5915 29.1319 35.7492 29.1197 35.8827 29.1683C35.9919 29.2168 36.1012 29.3138 36.1254 29.4351C36.1618 29.5928 36.1254 29.7747 36.0769 29.9324C36.0041 30.1507 35.8585 30.3326 35.7371 30.5267C35.7007 30.5873 35.6522 30.6965 35.5794 30.6843C35.4944 30.6843 35.4459 30.5873 35.3973 30.5024C35.3124 30.3205 35.2396 30.1143 35.2032 29.9081C35.1668 29.714 35.1304 29.4957 35.2032 29.3017C35.2274 29.2046 35.3488 29.1561 35.4459 29.144V29.1683ZM36.4409 27.2883C36.8414 27.6764 37.1812 28.1252 37.5088 28.5861C37.5937 28.7074 37.6423 28.865 37.6666 29.0106C37.703 29.3138 37.7151 29.617 37.6666 29.9202C37.6544 29.9809 37.5209 29.9687 37.4845 29.9202C37.1205 29.4957 36.7928 29.0348 36.4895 28.574C36.4045 28.4405 36.3196 28.295 36.2953 28.1373C36.2468 27.8948 36.2468 27.6401 36.2953 27.3975C36.3074 27.3247 36.4045 27.2156 36.4531 27.2641L36.4409 27.2883ZM34.7785 27.5915C34.8149 27.919 34.8391 28.2586 34.8149 28.5861C34.8027 28.7195 34.7421 28.865 34.6571 28.9742C34.3901 29.3017 34.0989 29.617 33.7713 29.896C33.7227 29.9324 33.6256 29.9202 33.5892 29.8596C33.5286 29.7626 33.5528 29.6291 33.5528 29.52C33.5528 29.3017 33.5528 29.0712 33.6135 28.865C33.6499 28.7195 33.7227 28.5861 33.8077 28.4648C34.0382 28.1495 34.2809 27.8584 34.5358 27.5552C34.5722 27.5066 34.6207 27.4217 34.6814 27.4339C34.7421 27.4339 34.7785 27.5309 34.7785 27.5915ZM35.3367 27.0094C35.4944 26.9609 35.6764 26.9487 35.8342 26.9851C35.9313 27.0215 36.0283 27.1064 36.0526 27.2156C36.089 27.4581 36.0526 27.7007 35.9919 27.9433C35.9313 28.1858 35.8463 28.4284 35.6886 28.6346C35.64 28.6952 35.5065 28.6952 35.4701 28.6346C35.3245 28.4527 35.2639 28.2101 35.2153 27.9918C35.1546 27.7492 35.0818 27.4945 35.1182 27.2398C35.1304 27.1307 35.2517 27.0458 35.3488 27.0094H35.3367ZM36.0041 24.8869C36.1254 24.8626 36.2589 24.9596 36.356 25.0445C36.6108 25.2386 36.8171 25.4448 37.0234 25.6752C37.1933 25.8572 37.351 26.0512 37.4724 26.2574C37.5573 26.4029 37.5816 26.5364 37.6059 26.7062C37.6301 26.876 37.6423 27.0821 37.5816 27.2519C37.5573 27.3005 37.4845 27.2883 37.436 27.2519C37.3146 27.1792 37.2176 27.07 37.1205 26.9609C36.8657 26.694 36.6108 26.4393 36.3803 26.1482C36.2589 26.0027 36.1254 25.8329 36.0526 25.651C35.9798 25.469 35.9677 25.275 35.9555 25.0809C35.9555 25.0082 35.9555 24.899 36.0162 24.8869H36.0041ZM34.3416 25.372C34.3416 25.372 34.5115 25.3356 34.5236 25.4084C34.6086 25.7844 34.6207 26.1846 34.5964 26.5727C34.5843 26.7547 34.4872 26.9245 34.4023 27.0821C34.2324 27.3732 34.0382 27.6522 33.8077 27.8826C33.7349 27.9554 33.6256 28.0039 33.5771 27.9554C33.5407 27.919 33.5164 27.6886 33.5286 27.5673C33.5528 27.2883 33.565 27.0215 33.6135 26.7547C33.6378 26.6334 33.6863 26.5121 33.747 26.4029C33.9412 26.0512 34.111 25.6874 34.3537 25.3841L34.3416 25.372ZM35.1789 24.5837C35.3124 24.5715 35.4823 24.5958 35.5794 24.6928C35.6764 24.7777 35.7007 24.9233 35.7128 25.0567C35.7128 25.4084 35.6764 25.7601 35.6279 26.1119C35.6158 26.2089 35.6036 26.3666 35.5065 26.3908C35.4216 26.4272 35.3367 26.2938 35.276 26.221C35.1425 26.0633 35.009 25.8935 34.9119 25.6995C34.8149 25.5054 34.7299 25.2992 34.7056 25.0931C34.6935 24.9839 34.7056 24.8505 34.7906 24.7656C34.8877 24.6564 35.0454 24.5958 35.1789 24.5837ZM35.2153 22.449C35.5187 22.5824 35.8585 22.7644 36.1133 22.9948C36.4167 23.2616 36.6836 23.5042 36.9021 23.8317C37.0477 24.05 37.1083 24.3411 37.1448 24.6079C37.1448 24.6686 37.0355 24.7049 36.9749 24.6807C36.7928 24.6079 36.6472 24.4624 36.4895 24.329C36.2225 24.1106 35.9313 23.9045 35.7007 23.6498C35.5065 23.4314 35.3488 23.1646 35.2032 22.9099C35.1304 22.7886 35.0333 22.6552 35.0454 22.5218C35.0454 22.4369 35.1425 22.4126 35.2153 22.449ZM34.0382 23.6983C34.1353 23.8802 34.196 24.0864 34.2081 24.2926C34.2203 24.5109 34.1838 24.7292 34.111 24.9354C34.014 25.2022 33.8683 25.4569 33.7227 25.6995C33.6378 25.845 33.5771 26.027 33.4315 26.1119C33.3708 26.1482 33.2616 26.0633 33.2373 26.0027C33.1645 25.8329 33.1403 25.6267 33.1403 25.4327C33.1403 25.2265 33.1645 25.0203 33.2373 24.8262C33.3223 24.5958 33.4679 24.3896 33.6014 24.1834C33.6985 24.0257 33.7834 23.8438 33.9169 23.7104C33.9412 23.674 34.0261 23.674 34.0504 23.7104L34.0382 23.6983ZM34.4144 22.5461C34.5722 22.5703 34.7542 22.6552 34.8391 22.8008C34.9605 22.9948 34.9847 23.2374 35.009 23.4557C35.0212 23.674 35.0333 23.8923 34.9605 24.0985C34.9362 24.1592 34.827 24.1713 34.7906 24.147C34.56 23.9772 34.3659 23.7589 34.196 23.5285C34.0746 23.3829 33.9533 23.2131 33.929 23.0191C33.9169 22.8978 33.9897 22.7765 34.0868 22.6916C34.1717 22.6067 34.3052 22.5461 34.4265 22.5582L34.4144 22.5461ZM34.111 20.4114C34.2688 20.6904 34.4508 20.9572 34.6571 21.1877C34.8027 21.3575 34.9605 21.5151 35.1304 21.6485C35.4216 21.8547 35.7128 22.0488 36.0405 22.1822C36.1012 22.2065 36.2104 22.1337 36.1982 22.073C36.0647 21.6971 35.9313 21.2847 35.64 21.0057C35.276 20.6661 35.0212 20.5812 34.5722 20.375C34.4872 20.3387 34.2688 20.278 34.196 20.2659C34.1353 20.2659 34.0746 20.3629 34.0989 20.4114H34.111ZM33.3101 20.5085C33.3951 20.4599 33.5286 20.4599 33.5892 20.5327C33.7834 20.7268 33.9533 20.9815 34.0504 21.2362C34.1474 21.503 34.1838 21.8062 34.1474 22.0973C34.1474 22.1701 34.0018 22.2065 33.9412 22.1822C33.6135 22.0003 33.3101 21.7577 33.031 21.4909C32.8976 21.3696 32.7155 21.1998 32.7641 21.03C32.8247 20.7874 33.0917 20.6419 33.3101 20.5206V20.5085ZM32.8854 21.8183C33.1038 22.0124 33.2373 22.2914 33.3465 22.5582C33.4315 22.7765 33.4558 23.0191 33.4315 23.2495C33.3829 23.6619 33.2859 24.0864 33.1038 24.4624C33.0674 24.5351 32.8976 24.5473 32.849 24.4624C32.6913 24.2441 32.6063 23.9894 32.5699 23.7225C32.5092 23.3587 32.5214 22.9948 32.5335 22.631C32.5335 22.4005 32.5456 22.1458 32.6427 21.9396C32.6791 21.8547 32.8126 21.7577 32.8854 21.8183ZM32.5092 18.5679C32.7398 18.8711 33.0796 19.0894 33.3951 19.3199C33.5164 19.4169 33.6621 19.4654 33.8077 19.526C34.1596 19.6595 34.5115 19.8293 34.8998 19.8899C34.9726 19.8899 35.0333 19.8171 34.9969 19.7444C34.8149 19.3926 34.6207 19.053 34.3295 18.7862C34.1717 18.6407 33.9412 18.6043 33.7349 18.5436C33.3708 18.4466 33.0068 18.386 32.6306 18.3981C32.5456 18.3981 32.4486 18.5072 32.4971 18.5679H32.5092ZM31.4778 19.8293C31.7205 20.0476 31.8904 20.3265 32.0481 20.6176C32.1452 20.7995 32.1937 21.0057 32.2059 21.1998C32.2059 21.6485 32.1816 22.073 32.0603 22.5097C32.036 22.5946 31.8904 22.6067 31.8418 22.5461C31.6234 22.2671 31.4899 21.9032 31.3443 21.5758C31.2594 21.3696 31.1623 21.1755 31.1501 20.9572C31.1137 20.5934 31.1259 20.1931 31.2229 19.8414C31.2472 19.7565 31.405 19.7686 31.4778 19.8293ZM31.8418 18.6285C31.9268 18.58 32.0602 18.58 32.1331 18.6528C32.3394 18.8347 32.485 19.0773 32.6063 19.3199C32.7277 19.5746 32.8612 19.8414 32.8854 20.1203C32.8854 20.1931 32.7762 20.278 32.7034 20.2538C32.4486 20.1689 32.2423 19.9869 32.0117 19.8293C31.8297 19.708 31.6477 19.5746 31.5142 19.4169C31.4292 19.3199 31.32 19.1864 31.3564 19.0652C31.4414 18.8711 31.6355 18.7377 31.8297 18.6285H31.8418ZM30.7011 16.6637C30.956 16.979 31.2836 17.2337 31.6113 17.4763C31.7933 17.6097 32.0238 17.6946 32.2423 17.7431C32.6549 17.8523 33.0674 17.9251 33.4922 17.9493C33.5407 17.9493 33.5892 17.8523 33.5528 17.8038C33.298 17.4763 33.0068 17.1488 32.667 16.8941C32.4728 16.7486 32.2301 16.6758 31.9996 16.6394C31.6234 16.5667 31.2351 16.5424 30.8468 16.5545C30.7861 16.5545 30.6405 16.6152 30.6769 16.6637H30.7011ZM29.7668 17.8887C30.0459 18.1676 30.24 18.5194 30.4463 18.8711C30.5434 19.0409 30.6405 19.2228 30.6526 19.4169C30.6769 19.8293 30.6526 20.2659 30.5555 20.6661C30.5434 20.7389 30.3856 20.7995 30.3492 20.7389C30.1065 20.3993 29.9609 19.9869 29.791 19.5988C29.7061 19.4169 29.609 19.235 29.5847 19.0288C29.5483 18.6892 29.5362 18.3496 29.5847 18.01C29.5847 17.9372 29.7061 17.8402 29.7546 17.8887H29.7668ZM31.2836 18.4466C31.0409 18.4102 30.7982 18.3253 30.5798 18.1919C30.3735 18.0706 30.1915 17.8887 30.0337 17.7068C29.9731 17.634 29.9124 17.5248 29.9245 17.4399C29.9245 17.3186 29.9973 17.1974 30.0823 17.1003C30.1429 17.0276 30.2279 16.9912 30.3128 16.9669C30.4099 16.9548 30.5191 16.9427 30.6041 17.0033C30.8104 17.1731 30.9681 17.3914 31.1137 17.6219C31.2472 17.8402 31.3807 18.0827 31.4292 18.3374C31.4292 18.3981 31.3443 18.4587 31.2836 18.4466ZM28.796 15.1476C29.0023 15.4387 29.3299 15.6206 29.6211 15.8268C29.7546 15.9239 29.9002 16.033 30.058 16.0573C30.5313 16.1179 31.0288 16.1179 31.502 16.0815C31.5749 16.0815 31.6962 15.9724 31.6477 15.9117C31.3928 15.6206 31.0409 15.4023 30.7133 15.184C30.5555 15.087 30.3978 15.0021 30.2158 14.9778C29.8153 14.9293 29.4149 14.9293 29.0144 14.9778C28.9173 14.9778 28.7353 15.0749 28.7838 15.1476H28.796ZM28.2256 16.5909C28.5411 16.8578 28.7838 17.1974 29.0144 17.537C29.0872 17.6461 29.1236 17.7795 29.1358 17.9008C29.1479 18.3011 29.16 18.7013 29.0751 19.1015C29.0751 19.1622 28.9173 19.1986 28.8809 19.1379C28.6261 18.8105 28.4441 18.4223 28.2742 18.0342C28.2014 17.8644 28.1892 17.6704 28.1528 17.4763C28.1043 17.2216 28.0679 16.9548 28.0922 16.688C28.0922 16.6152 28.165 16.5182 28.2256 16.5667V16.5909ZM28.5411 15.5357C28.711 15.5843 28.8566 15.6813 28.978 15.8026C29.2086 16.0451 29.3784 16.3362 29.5605 16.6031C29.609 16.688 29.6818 16.7971 29.6576 16.8941C29.6576 16.9548 29.5605 16.979 29.4998 16.979C29.3542 16.979 29.1964 16.9305 29.0629 16.8578C28.796 16.7001 28.5533 16.4939 28.3227 16.2756C28.2378 16.2028 28.1407 16.1058 28.1407 15.9845C28.1407 15.8511 28.2378 15.7177 28.3227 15.6085C28.3713 15.5479 28.4683 15.4994 28.5533 15.5236L28.5411 15.5357ZM26.1384 15.2689C26.4782 15.4751 26.7816 15.7662 27.0728 16.033C27.1578 16.1179 27.2548 16.2149 27.2791 16.3362C27.3519 16.8092 27.3883 17.2823 27.3641 17.7674C27.3641 17.828 27.2306 17.8887 27.182 17.8523C26.8908 17.6219 26.636 17.3429 26.4175 17.0397C26.3083 16.9063 26.2598 16.7365 26.2113 16.5667C26.1142 16.1664 26.005 15.7662 25.9807 15.3659C25.9807 15.3053 26.0899 15.2325 26.1506 15.2568L26.1384 15.2689ZM26.5632 13.8256C26.7937 14.0682 27.1214 14.2016 27.4369 14.3471C27.534 14.3957 27.6432 14.3835 27.7524 14.3835C28.3591 14.3835 28.9537 14.432 29.5483 14.3593C29.609 14.3593 29.6575 14.2137 29.609 14.1773C29.4149 13.9833 29.1722 13.862 28.9295 13.7407C28.7838 13.6801 28.6261 13.6437 28.4683 13.6437C27.898 13.6194 27.3398 13.6073 26.7695 13.6679C26.6845 13.6679 26.5025 13.765 26.5632 13.8377V13.8256Z" fill="white"/>
<path fill-rule="evenodd" clip-rule="evenodd" d="M18.906 15.2204C18.3236 15.4387 17.7532 15.6449 17.1829 15.8875C17.0615 15.936 16.9038 16.1422 16.9159 16.2999C16.9281 16.4939 17.0009 16.6152 17.1101 16.7486C17.1708 16.8214 17.3042 16.8699 17.3649 16.8214C18.0202 16.312 18.6997 15.8632 19.44 15.56C19.5128 15.5236 19.5856 15.4509 19.5977 15.366C19.5977 15.2689 19.5613 15.2325 19.5006 15.1719C19.3793 15.0506 19.0274 15.1719 18.906 15.2204ZM21.1146 15.2204C21.697 15.4387 22.2674 15.6449 22.8377 15.8875C22.9591 15.936 23.1168 16.1422 23.1047 16.2999C23.0804 16.4939 23.0197 16.6152 22.9105 16.7486C22.8499 16.8214 22.7164 16.8699 22.6557 16.8214C22.0004 16.312 21.3209 15.8632 20.5806 15.56C20.5078 15.5236 20.4229 15.4509 20.4229 15.366C20.4229 15.2689 20.4593 15.2325 20.52 15.1719C20.6413 15.0506 20.9932 15.1719 21.1146 15.2204ZM20.7141 13.9712C20.7505 14.5412 21.2238 14.7353 21.7335 14.8444C22.0732 14.9172 22.68 14.9051 22.8863 14.7959C23.4445 14.4927 23.76 13.4133 24.0512 12.6007C24.1726 12.2611 24.3303 11.8123 24.2696 11.5333C24.2332 11.3757 24.0876 11.2786 23.9299 11.2786C23.3838 11.2423 22.862 11.3878 22.3402 11.5576C21.7941 11.7274 20.7627 12.067 20.7263 12.7583C20.7141 13.0615 20.6899 13.6194 20.7141 13.9712ZM22.5708 13.11C22.7164 13.1586 22.8499 13.2313 22.9591 13.3405C23.0562 13.4375 23.1532 13.5831 23.1411 13.7286C23.1411 13.8863 23.044 14.0439 22.9348 14.1652C22.8135 14.3108 22.6678 14.4321 22.4858 14.4806C22.2795 14.5412 22.0611 14.5291 21.8548 14.4806C21.6849 14.4442 21.515 14.3472 21.3694 14.2259C21.2481 14.1288 21.1267 14.0076 21.0782 13.862C21.0418 13.7529 21.066 13.6194 21.1267 13.5345C21.2359 13.389 21.3937 13.2798 21.5514 13.2071C21.7335 13.1222 21.9397 13.0979 22.1339 13.0737C22.2674 13.0615 22.4251 13.0615 22.5465 13.0979L22.5708 13.11ZM20.0103 12.1762C20.2651 12.2732 20.4108 12.5643 20.3986 13.4254C20.3865 14.2865 20.2409 14.5776 20.0103 14.6746C19.7797 14.5776 19.6463 14.2865 19.622 13.4254C19.6099 12.5521 19.7676 12.2611 20.0103 12.1762ZM19.3065 13.9712C19.2701 14.5412 18.7968 14.7353 18.2872 14.8444C17.9474 14.9172 17.3406 14.9051 17.1343 14.7959C16.5761 14.4927 16.2606 13.4133 15.9694 12.6007C15.8481 12.2611 15.6903 11.8123 15.751 11.5333C15.7874 11.3757 15.9209 11.2786 16.0907 11.2786C16.6368 11.2423 17.1586 11.3878 17.6804 11.5576C18.2265 11.7274 19.2458 12.067 19.2822 12.7583C19.2943 13.0615 19.3186 13.6194 19.2943 13.9712H19.3065ZM17.4499 13.11C17.3042 13.1586 17.1586 13.2313 17.0615 13.3405C16.9645 13.4375 16.8674 13.5831 16.8674 13.7286C16.8674 13.8863 16.9645 14.0439 17.0737 14.1652C17.195 14.3108 17.3406 14.4321 17.5227 14.4806C17.729 14.5412 17.9474 14.5291 18.1537 14.4806C18.3236 14.4442 18.4934 14.3472 18.6391 14.2259C18.7604 14.1288 18.8818 14.0076 18.9303 13.862C18.9667 13.7529 18.9424 13.6194 18.8818 13.5345C18.7726 13.389 18.6148 13.2798 18.457 13.2071C18.275 13.1222 18.0687 13.0979 17.8746 13.0737C17.7411 13.0615 17.5955 13.0615 17.462 13.0979L17.4499 13.11Z" fill="white"/>
<path fill-rule="evenodd" clip-rule="evenodd" d="M20.0103 17.2823C26.551 17.2823 31.8782 22.6067 31.8782 29.144C31.8782 35.6813 26.551 41.0058 20.0103 41.0058C13.4697 41.0058 8.14246 35.6813 8.14246 29.144C8.14246 22.6067 13.4697 17.2823 20.0103 17.2823ZM16.2849 31.7759C16.2485 32.1034 16.2243 32.443 16.2849 32.7705C16.3577 33.1222 16.5155 33.4133 16.7218 33.7044C16.9645 34.044 17.2436 34.335 17.5348 34.6019C17.8867 34.9051 18.1901 35.2083 18.5178 35.5115C18.8211 35.7905 19.0638 36.1301 19.3065 36.4575C19.44 36.6395 19.5007 36.8578 19.5735 37.064C19.5856 37.1125 19.6706 37.1246 19.6827 37.0397C19.7191 36.8214 19.7191 36.6031 19.6827 36.3848C19.6342 36.0573 19.5978 35.7177 19.4279 35.4266C19.1973 35.0142 18.8939 34.6625 18.5663 34.3229C18.1416 33.8742 17.6076 33.5346 17.1587 33.0737C16.8795 32.7826 16.6854 32.4187 16.4791 32.0791C16.4306 31.9942 16.382 31.8851 16.3456 31.7881C16.3456 31.7517 16.2607 31.7517 16.2607 31.7881L16.2849 31.7759ZM23.7236 31.7759C23.76 32.1034 23.7843 32.443 23.7236 32.7705C23.6508 33.1222 23.493 33.4133 23.2867 33.7044C23.0441 34.044 22.765 34.335 22.4737 34.6019C22.1218 34.9051 21.8184 35.2083 21.4908 35.5115C21.1874 35.7905 20.9447 36.1301 20.702 36.4575C20.5685 36.6395 20.5079 36.8578 20.4351 37.064C20.4229 37.1125 20.338 37.1246 20.3258 37.0397C20.2894 36.8214 20.2894 36.6031 20.3258 36.3848C20.3744 36.0573 20.4108 35.7177 20.5807 35.4266C20.8112 35.0142 21.1146 34.6625 21.4423 34.3229C21.867 33.8742 22.413 33.5346 22.8499 33.0737C23.129 32.7826 23.3232 32.4187 23.5294 32.0791C23.5901 31.9942 23.6265 31.8851 23.6629 31.7881C23.6629 31.7517 23.7479 31.7517 23.7479 31.7881L23.7236 31.7759ZM20.0103 21.5152C20.5443 22.1944 20.8112 23.8681 20.8112 25.1537C20.8112 26.124 20.5443 27.0094 20.0103 27.349C19.4764 27.0094 19.2094 26.1119 19.2094 25.1537C19.2094 23.8802 19.4643 22.1944 20.0103 21.5152ZM20.3016 39.708C20.4472 39.3199 20.5321 38.8954 20.7263 38.5315C20.9083 38.1677 21.1631 37.8402 21.4423 37.537C21.7092 37.2459 22.0126 36.9669 22.3524 36.7365C22.6921 36.5061 23.1047 36.409 23.4445 36.1907C23.9178 35.8875 24.4032 35.5843 24.8157 35.1962C25.2647 34.7838 25.6894 34.335 26.0292 33.8256C26.3447 33.3405 26.5632 32.7947 26.7452 32.2368C26.8908 31.7759 26.9029 31.2787 26.9879 30.8056C27.0607 30.4418 27.1092 30.0779 27.2427 29.7383C27.3519 29.4472 27.4975 29.1804 27.6796 28.9136C27.7645 28.7923 27.6674 28.7559 27.5825 28.8166C27.4247 28.9378 27.2912 29.0834 27.1578 29.2411C26.9029 29.5685 26.636 29.896 26.4175 30.2599C26.102 30.7693 25.8229 31.2908 25.5438 31.8244C25.3011 32.2975 25.1677 32.819 24.8521 33.2556C24.4881 33.765 24.027 34.2016 23.5659 34.6261C23.1533 35.0021 22.6679 35.2689 22.2432 35.6328C21.8791 35.9603 21.5393 36.312 21.2238 36.6759C21.0054 36.9306 20.7991 37.2095 20.6535 37.5006C20.4715 37.8523 20.3016 38.2283 20.2166 38.6286C20.1438 38.9803 20.1317 39.3441 20.1317 39.708C20.0953 39.708 20.0589 39.708 20.0225 39.708C19.9861 39.708 19.9497 39.708 19.9133 39.708C19.9133 39.3441 19.9133 38.9803 19.8283 38.6286C19.7434 38.2404 19.5735 37.8645 19.3915 37.5006C19.2337 37.2095 19.0274 36.9306 18.809 36.6759C18.4935 36.312 18.1537 35.9603 17.7897 35.6328C17.3771 35.2689 16.8795 34.99 16.4791 34.6261C16.018 34.2016 15.5447 33.765 15.1928 33.2556C14.8894 32.819 14.7559 32.2975 14.5133 31.8244C14.2342 31.2908 13.955 30.7693 13.6395 30.2599C13.409 29.9081 13.1663 29.5685 12.8993 29.2411C12.778 29.0834 12.6323 28.9378 12.4746 28.8166C12.3897 28.7438 12.2926 28.7923 12.3775 28.9136C12.5595 29.1804 12.7173 29.4472 12.8144 29.7383C12.9357 30.0779 12.9964 30.4418 13.0571 30.8056C13.1541 31.2787 13.1541 31.7759 13.2998 32.2368C13.4818 32.7947 13.7002 33.3405 14.0157 33.8256C14.3434 34.335 14.7681 34.7838 15.2292 35.1962C15.6418 35.5843 16.1272 35.8875 16.6004 36.1907C16.9524 36.409 17.3649 36.5061 17.7047 36.7365C18.0324 36.9548 18.3357 37.2338 18.6148 37.537C18.8939 37.8402 19.1488 38.1677 19.3308 38.5315C19.5249 38.9075 19.6099 39.3199 19.7434 39.708C14.0521 39.5503 9.46515 34.8687 9.46515 29.144C9.46515 23.4193 14.2099 18.58 20.0346 18.58C25.8593 18.58 30.6162 23.3223 30.6162 29.144C30.6162 34.9657 26.0292 39.5503 20.338 39.708H20.3016ZM24.476 22.8129C24.5245 23.2132 24.5488 23.6134 24.4638 24.0136C24.3789 24.4381 24.1969 24.8505 23.9784 25.2144C23.7357 25.6267 23.4445 26.027 23.1047 26.3666C22.7164 26.7547 22.231 27.0094 21.8306 27.3854C21.4665 27.725 21.1146 28.0767 20.8234 28.477C20.6656 28.6953 20.5807 28.9621 20.4957 29.2047C20.4715 29.2532 20.3744 29.2774 20.3623 29.1804C20.3137 28.9136 20.3137 28.6468 20.3623 28.3799C20.4229 27.9918 20.4715 27.5673 20.6656 27.2277C20.9447 26.7304 21.3694 26.3181 21.7578 25.9057C22.2796 25.3599 22.8984 24.9233 23.4081 24.3654C23.7357 24.0015 23.9784 23.577 24.2333 23.1646C24.2939 23.0555 24.3546 22.9342 24.391 22.8129C24.4032 22.7644 24.5002 22.7765 24.5002 22.8129H24.476ZM24.2211 25.8936C24.2575 26.2696 24.2818 26.6577 24.2211 27.0215C24.1362 27.4218 23.9663 27.8099 23.76 28.1616C23.5294 28.5619 23.2018 28.8287 22.862 29.1319C22.4616 29.4836 22.049 29.8111 21.6607 30.1628C21.3209 30.4782 21.0297 30.8663 20.7627 31.2423C20.6171 31.4485 20.5321 31.7032 20.4472 31.9336C20.4351 31.9821 20.338 31.9942 20.3137 31.9093C20.2652 31.6546 20.2773 31.3999 20.3137 31.1574C20.3744 30.7814 20.4108 30.3933 20.6049 30.0658C20.8719 29.5928 21.2845 29.2653 21.6607 28.8651C22.1582 28.3557 22.7285 27.8827 23.2018 27.3611C23.5052 27.0215 23.7357 26.6092 23.9784 26.221C24.0391 26.124 24.0876 26.0027 24.1241 25.8814C24.1241 25.8329 24.2211 25.8451 24.2333 25.8814L24.2211 25.8936ZM24.0148 28.9015C24.0512 29.2532 24.0755 29.6292 24.0148 29.9688C23.9299 30.3448 23.76 30.6722 23.5416 30.9754C23.2746 31.3514 22.9834 31.6668 22.6557 31.9457C22.2796 32.2732 21.9519 32.6128 21.5879 32.9403C21.2602 33.2435 20.9933 33.6073 20.7263 33.9712C20.5807 34.1652 20.5079 34.4078 20.4351 34.6261C20.4229 34.6746 20.3258 34.6868 20.3137 34.6019C20.2773 34.3714 20.2773 34.1289 20.3137 33.8863C20.3744 33.5346 20.4108 33.1586 20.5807 32.8554C20.8355 32.4066 21.151 32.0185 21.5151 31.6546C21.9762 31.1695 22.5587 30.7935 23.0441 30.2962C23.3474 29.9809 23.5537 29.5928 23.7843 29.2168C23.845 29.1198 23.8935 29.0106 23.9178 28.9015C23.9178 28.8651 24.0148 28.8651 24.0148 28.9015ZM15.5447 22.8129C15.4962 23.2132 15.4719 23.6134 15.5447 24.0136C15.6297 24.4381 15.8117 24.8505 16.0301 25.2144C16.2728 25.6267 16.564 26.027 16.9038 26.3666C17.2921 26.7547 17.7775 27.0094 18.1901 27.3854C18.5542 27.725 18.9061 28.0767 19.1973 28.477C19.3551 28.6953 19.44 28.9621 19.5249 29.2047C19.5371 29.2532 19.6463 29.2774 19.6584 29.1804C19.707 28.9136 19.707 28.6468 19.6584 28.3799C19.5978 27.9918 19.5492 27.5673 19.3551 27.2277C19.076 26.7304 18.6512 26.3181 18.2508 25.9057C17.729 25.3599 17.1101 24.9233 16.6004 24.3654C16.2728 24.0015 16.0301 23.577 15.7753 23.1646C15.7146 23.0555 15.6539 22.9342 15.6175 22.8129C15.6175 22.7644 15.5204 22.7765 15.5083 22.8129H15.5447ZM15.7874 25.8936C15.751 26.2696 15.7267 26.6577 15.7995 27.0215C15.8845 27.4218 16.0544 27.8099 16.2607 28.1616C16.4912 28.5619 16.8189 28.8287 17.1587 29.1319C17.5591 29.4836 17.9717 29.8111 18.3479 30.1628C18.6998 30.4782 18.9789 30.8663 19.258 31.2423C19.4036 31.4485 19.4885 31.7032 19.5614 31.9336C19.5735 31.9821 19.6706 31.9942 19.6948 31.9093C19.7312 31.6546 19.7312 31.3999 19.6948 31.1574C19.6342 30.7814 19.5978 30.3933 19.4036 30.0658C19.1366 29.5928 18.724 29.2653 18.3479 28.8651C17.8503 28.3557 17.28 27.8827 16.8067 27.3611C16.5034 27.0215 16.2607 26.6092 16.0301 26.221C15.9694 26.124 15.9209 26.0027 15.8845 25.8814C15.8845 25.8329 15.7874 25.8451 15.7753 25.8814L15.7874 25.8936ZM15.9937 28.9015C15.9573 29.2532 15.933 29.6292 16.0058 29.9688C16.0908 30.3448 16.2485 30.6722 16.4791 30.9754C16.7461 31.3514 17.0373 31.6668 17.3649 31.9457C17.7411 32.2732 18.0688 32.6128 18.4328 32.9403C18.7604 33.2435 19.0274 33.6073 19.2822 33.9712C19.4279 34.1652 19.5007 34.4078 19.5735 34.6261C19.5856 34.6746 19.6827 34.6868 19.6948 34.6019C19.7312 34.3714 19.7312 34.1289 19.6948 33.8863C19.6342 33.5346 19.5978 33.1586 19.4279 32.8554C19.173 32.4066 18.8454 32.0185 18.4935 31.6546C18.0324 31.1695 17.4499 30.7935 16.9645 30.2962C16.6611 29.9809 16.4548 29.5928 16.2243 29.2168C16.1636 29.1198 16.1151 29.0106 16.0908 28.9015C16.0908 28.8651 15.9937 28.8651 15.9937 28.9015Z" fill="white"/>
<path d="M47.1561 29.2289C47.1561 27.9554 47.3745 26.4757 47.7992 24.8262C48.2239 23.1646 48.8792 21.7334 49.7408 20.5206H51.9008C50.9179 22.1458 50.2747 23.6376 49.9713 24.996C49.668 26.3544 49.5102 27.7613 49.5102 29.241C49.5102 30.7207 49.668 32.2246 49.9713 33.6437C50.2868 35.0627 50.9179 36.5788 51.8886 38.1919H49.7286C48.8428 36.979 48.1997 35.5236 47.7749 33.8499C47.3502 32.1761 47.1439 30.6358 47.1439 29.2531L47.1561 29.2289Z" fill="white"/>
<path d="M64.2905 35.0627L62.1912 36.7728C61.5359 36.2392 60.7957 35.4023 59.9826 34.2744C59.1696 33.1464 58.575 32.1276 58.2231 31.2058C57.9683 32.1882 57.4222 33.2919 56.6092 34.5169C55.7961 35.7419 55.0559 36.6273 54.3763 37.1973L52.1799 35.6085C53.6847 34.2622 54.7889 32.637 55.4927 30.7086C56.1966 28.7801 56.5485 26.8517 56.5485 24.899V20.9087H59.6065V25.0081C59.6065 26.6455 60.0069 28.3799 60.8078 30.2113C61.6087 32.0427 62.7737 33.6679 64.3026 35.0627H64.2905ZM68.6227 20.7389V27.2398H70.4671V29.8232H68.6227V37.7067H65.6253V20.7389H68.6227Z" fill="white"/>
<path d="M75.1511 29.2289C75.1511 30.6358 74.9448 32.164 74.52 33.8377C74.0953 35.5115 73.44 36.9548 72.5663 38.1676H70.4185C71.3892 36.5545 72.0203 35.0384 72.3236 33.6315C72.627 32.2246 72.7726 30.7571 72.7726 29.2289C72.7726 27.7007 72.627 26.318 72.3358 24.9717C72.0445 23.6255 71.4014 22.1337 70.4185 20.5084H72.5785C73.4522 21.7213 74.0953 23.1646 74.52 24.8141C74.9448 26.4635 75.1511 27.9432 75.1511 29.2289Z" fill="white"/>
<path d="M76.304 23.9287V21.6121H80.4298V20.1082H83.5242V21.6121H87.7593V23.9287H76.3161H76.304ZM78.197 31.0724C77.2505 30.3811 76.7772 29.4351 76.7772 28.2465C76.7772 27.0579 77.2505 26.1118 78.197 25.4205C79.1435 24.7292 80.4177 24.3896 82.0316 24.3896C83.6455 24.3896 84.9197 24.7292 85.8783 25.4205C86.8249 26.1118 87.2981 27.0457 87.2981 28.2465C87.2981 29.4472 86.8249 30.3811 85.8783 31.0724C84.9318 31.7637 83.6577 32.1155 82.0316 32.1155C80.4055 32.1155 79.1314 31.7637 78.197 31.0724ZM77.6752 37.5248V32.6006H80.7696V35.087H92.7588V37.5248H77.6752ZM79.6896 28.2465C79.6896 28.7801 79.8959 29.2046 80.2963 29.52C80.6968 29.8353 81.2792 29.993 82.0437 29.993C82.8082 29.993 83.4028 29.8353 83.8033 29.52C84.2037 29.2046 84.41 28.7801 84.41 28.2465C84.41 27.7128 84.2037 27.3004 83.7912 26.9851C83.3786 26.6698 82.7961 26.5121 82.0437 26.5121C81.2914 26.5121 80.7089 26.6698 80.2963 26.9851C79.8959 27.3004 79.6896 27.7249 79.6896 28.2465ZM92.5646 20.7389V25.5903H94.3242V27.9918H92.5646V32.8674H89.5673V20.7389H92.5646Z" fill="white"/>
<path d="M111.92 29.9808H105.173V32.0063H111.143V37.7067H107.952V34.4077H95.9987V32.0063H102.018V29.9808H95.2949V27.5066H111.92V29.9808ZM96.0837 23.3101V20.8359H110.961V26.8759H107.782V23.3222H96.0958L96.0837 23.3101Z" fill="white"/>
<path d="M122.683 37.9008H119.528V34.6382H112.793V32.261H129.418V34.6382H122.671V37.9008H122.683ZM128.969 24.1713H113.255V21.8062H119.492V20.181H122.72V21.8062H128.969V24.1713ZM127.804 26.3665C128.168 26.8395 128.35 27.4217 128.35 28.1009C128.35 28.7801 128.168 29.3623 127.804 29.8232C127.44 30.284 126.906 30.6358 126.202 30.8783C125.499 31.1209 124.746 31.2786 123.945 31.3756C123.144 31.4726 122.21 31.5212 121.118 31.5212C120.026 31.5212 119.104 31.4726 118.291 31.3756C117.478 31.2786 116.713 31.1088 116.021 30.8662C115.318 30.6236 114.784 30.2719 114.407 29.811C114.031 29.3501 113.849 28.7922 113.849 28.113C113.849 25.7965 116.276 24.6321 121.118 24.6321C122.186 24.6321 123.132 24.6807 123.945 24.7777C124.758 24.8747 125.511 25.0566 126.215 25.2992C126.906 25.5418 127.44 25.9056 127.804 26.3786V26.3665ZM124.188 28.9863C124.819 28.8286 125.135 28.5254 125.135 28.0766C125.135 27.6279 124.819 27.3247 124.176 27.1549C123.533 26.9851 122.513 26.9002 121.13 26.9002C119.747 26.9002 118.703 26.9851 118.06 27.1549C117.417 27.3247 117.101 27.6279 117.101 28.0766C117.101 28.5254 117.417 28.8407 118.036 28.9863C118.655 29.1318 119.686 29.2167 121.13 29.2167C122.574 29.2167 123.569 29.1318 124.2 28.9863H124.188Z" fill="white"/>
<path d="M130.608 23.577V21.1149H138.022V22.0488C138.022 28.392 136.141 33.4375 132.379 37.161L130.049 35.5964C131.724 34.0924 132.962 32.2731 133.775 30.1264C134.576 27.9796 134.988 25.7965 134.988 23.5891H130.608V23.577ZM138.083 26.6091V24.0378H140.315V20.8359H143.264V37.6218H140.315V33.2192H137.367V30.6479H140.315V26.6091H138.083ZM144.599 37.7067V20.7389H147.548V37.7067H144.599Z" fill="white"/>
<path d="M149.817 26.791V20.8359H153.008V24.4866H164.84V26.791H158.833V28.3798H165.58V30.7813H148.955V28.3798H155.678V26.791H149.805H149.817ZM165.01 34.8444C165.01 35.4144 164.876 35.9117 164.597 36.3119C164.33 36.7122 163.978 37.0275 163.541 37.258C163.105 37.4884 162.534 37.6703 161.83 37.7916C161.114 37.9129 160.423 37.9978 159.755 38.0342C159.088 38.0706 158.263 38.0827 157.28 38.0827C156.078 38.0827 155.059 38.0463 154.222 37.9735C153.385 37.9008 152.584 37.7552 151.819 37.5369C151.055 37.3186 150.484 36.9911 150.096 36.5424C149.708 36.0936 149.514 35.5236 149.514 34.8444C149.514 34.2865 149.647 33.8134 149.926 33.4011C150.205 33.0008 150.557 32.6734 150.994 32.4429C151.431 32.2003 152.001 32.0184 152.693 31.885C153.397 31.7516 154.1 31.6546 154.804 31.6182C155.508 31.5697 156.333 31.5575 157.28 31.5575C158.081 31.5575 158.772 31.5697 159.355 31.5939C159.95 31.6182 160.556 31.6788 161.187 31.7516C161.818 31.8365 162.34 31.9456 162.777 32.1033C163.202 32.261 163.602 32.455 163.954 32.6855C164.318 32.9159 164.585 33.2191 164.755 33.583C164.925 33.9469 165.022 34.3714 165.022 34.8444H165.01ZM160.92 35.5842C161.527 35.4872 161.83 35.2325 161.83 34.8201C161.83 34.4077 161.527 34.153 160.92 34.0439C160.314 33.9347 159.1 33.8862 157.28 33.8862C155.46 33.8862 154.246 33.9347 153.639 34.0439C153.02 34.153 152.717 34.4077 152.717 34.8201C152.717 35.2325 153.02 35.4993 153.615 35.5963C154.21 35.6934 155.435 35.7298 157.292 35.7298C159.149 35.7298 160.326 35.6812 160.932 35.5842H160.92Z" fill="white"/>
<path d="M167.886 28.392C166.854 27.5187 166.333 26.3665 166.333 24.9596C166.333 23.5527 166.842 22.4004 167.874 21.5272C168.893 20.6539 170.191 20.2294 171.745 20.2294C173.067 20.2294 174.196 20.5569 175.167 21.2118C176.125 21.8668 176.744 22.74 177.023 23.8316H179.984V20.7631H182.982V29.7261H179.984V26.2452H176.987C176.684 27.3125 176.065 28.1615 175.106 28.7922C174.147 29.4229 173.031 29.7261 171.745 29.7261C170.204 29.7261 168.917 29.2895 167.886 28.4162V28.392ZM167.631 37.7067V30.4174H170.628V31.8486H179.984V30.4174H182.982V37.7067H167.619H167.631ZM169.924 23.1645C169.475 23.6012 169.245 24.1955 169.245 24.9474C169.245 25.6994 169.463 26.2937 169.924 26.7303C170.386 27.1791 170.98 27.3974 171.745 27.3974C172.509 27.3974 173.116 27.167 173.565 26.7182C174.026 26.2573 174.257 25.6752 174.257 24.9353C174.257 24.1955 174.026 23.6012 173.577 23.1524C173.128 22.7158 172.509 22.4853 171.745 22.4853C170.98 22.4853 170.386 22.7037 169.924 23.1524V23.1645ZM170.628 35.4265H179.984V34.1652H170.628V35.4265Z" fill="white"/>
<path d="M184.887 23.2859V20.9208H194.194C194.279 23.3708 193.563 25.4084 192.034 27.0579C190.505 28.7073 188.442 29.7868 185.821 30.3083L184.049 28.2222C185.105 28.0524 186.1 27.7492 187.034 27.3368C187.969 26.9244 188.782 26.3544 189.486 25.6388C190.19 24.9232 190.614 24.1349 190.76 23.2859H184.887ZM201.232 34.2865C201.232 35.0385 201.038 35.6813 200.65 36.2028C200.261 36.7122 199.691 37.1124 198.939 37.3671C198.186 37.634 197.398 37.8159 196.548 37.9129C195.699 38.0221 194.704 38.0706 193.563 38.0706C188.321 38.0706 185.7 36.8092 185.7 34.2865C185.7 31.7637 188.321 30.4539 193.563 30.4539C194.461 30.4539 195.262 30.4902 195.966 30.5509C196.67 30.6115 197.361 30.7328 198.041 30.8905C198.72 31.0603 199.279 31.2786 199.728 31.5576C200.177 31.8365 200.541 32.2125 200.808 32.6734C201.075 33.1343 201.22 33.6801 201.22 34.2865H201.232ZM197.009 35.4266C197.725 35.1961 198.089 34.8201 198.089 34.2744C198.089 33.7286 197.725 33.3405 196.997 33.11C196.269 32.8796 195.128 32.7704 193.575 32.7704C191.925 32.7704 190.723 32.8796 189.971 33.11C189.219 33.3405 188.843 33.7286 188.843 34.2744C188.843 34.8201 189.219 35.2204 189.959 35.4387C190.699 35.657 191.913 35.7662 193.575 35.7662C195.141 35.7662 196.281 35.657 197.009 35.4387V35.4266ZM194.619 24.7656V22.3641H197.919V20.7389H200.917V30.1992H197.919V28.5739H194.206V26.1725H197.919V24.7534H194.619V24.7656Z" fill="white"/>
<path d="M203.926 28.7437C202.895 27.8341 202.385 26.6455 202.385 25.1779C202.385 23.7104 202.895 22.5218 203.926 21.6C204.958 20.6782 206.244 20.2174 207.785 20.2174C208.695 20.2174 209.532 20.3872 210.297 20.7146C211.061 21.0542 211.68 21.5272 212.166 22.1337H216.025V20.7389H219.022V30.3083H216.025V28.5739H211.814C210.77 29.5927 209.423 30.1021 207.785 30.1021C206.244 30.1021 204.958 29.6413 203.926 28.7316V28.7437ZM219.337 34.4563C219.337 35.0627 219.204 35.5964 218.925 36.033C218.658 36.4818 218.294 36.8335 217.857 37.0882C217.42 37.3429 216.85 37.5491 216.158 37.6946C215.466 37.8402 214.775 37.9493 214.083 37.9978C213.391 38.0464 212.59 38.0706 211.668 38.0706C210.515 38.0706 209.508 38.0221 208.659 37.9251C207.809 37.828 206.996 37.6582 206.207 37.4157C205.419 37.1731 204.824 36.7971 204.412 36.2998C203.999 35.8026 203.793 35.184 203.793 34.4563C203.793 33.862 203.938 33.3405 204.217 32.9038C204.509 32.4672 204.885 32.1034 205.346 31.8365C205.807 31.5697 206.402 31.3514 207.093 31.1937C207.797 31.036 208.501 30.9269 209.217 30.8662C209.933 30.8177 210.746 30.7813 211.644 30.7813C212.542 30.7813 213.367 30.8056 214.059 30.8541C214.75 30.9026 215.442 31.0118 216.134 31.1695C216.825 31.3271 217.384 31.5333 217.833 31.788C218.27 32.0548 218.634 32.4066 218.901 32.8553C219.168 33.3041 219.313 33.8377 219.313 34.4563H219.337ZM205.965 23.2495C205.516 23.7346 205.285 24.3775 205.285 25.1658C205.285 25.9542 205.516 26.597 205.965 27.0821C206.414 27.5673 207.021 27.8098 207.785 27.8098C208.55 27.8098 209.156 27.5673 209.605 27.07C210.066 26.5849 210.297 25.942 210.297 25.1658C210.297 24.3896 210.066 23.7346 209.605 23.2495C209.144 22.7644 208.537 22.5218 207.785 22.5218C207.033 22.5218 206.426 22.7644 205.965 23.2495ZM215.151 35.4993C215.843 35.3295 216.182 34.9657 216.182 34.432C216.182 33.8984 215.843 33.5467 215.151 33.3647C214.459 33.1828 213.306 33.0979 211.68 33.0979C209.957 33.0979 208.732 33.1828 208.016 33.3647C207.3 33.5467 206.948 33.8984 206.948 34.432C206.948 34.9657 207.3 35.3174 208.016 35.4993C208.719 35.6692 209.945 35.7541 211.692 35.7541C213.319 35.7541 214.483 35.6692 215.163 35.4993H215.151ZM213.185 25.1658C213.185 25.5175 213.149 25.845 213.076 26.1725H216.025V24.5351H213.149C213.173 24.8141 213.185 25.0203 213.185 25.1658Z" fill="white"/>
<path d="M220.357 25.4569C220.357 23.8559 220.891 22.5824 221.934 21.6364C222.99 20.6904 224.313 20.2174 225.902 20.2174C227.492 20.2174 228.827 20.6904 229.883 21.6364C230.95 22.5824 231.472 23.8559 231.472 25.4569C231.472 27.0579 230.938 28.3435 229.883 29.2895C228.827 30.2356 227.492 30.6964 225.902 30.6964C224.313 30.6964 222.99 30.2234 221.934 29.2895C220.878 28.3556 220.357 27.0821 220.357 25.4569ZM221.886 37.5248V31.8244H224.98V35.087H237.151V37.5248H221.886ZM223.257 25.4569C223.257 26.3665 223.5 27.07 223.985 27.5673C224.47 28.0645 225.114 28.3071 225.902 28.3071C226.691 28.3071 227.322 28.0524 227.82 27.5551C228.305 27.0457 228.56 26.3544 228.56 25.4569C228.56 24.5594 228.317 23.8681 227.82 23.3708C227.322 22.8735 226.691 22.6188 225.902 22.6188C225.114 22.6188 224.483 22.8614 223.997 23.3708C223.512 23.8681 223.257 24.5594 223.257 25.4569ZM236.957 20.7389V32.4915H233.96V20.7389H236.957Z" fill="white"/>
<path d="M254.516 20.8359V23.1888H248.886C249.298 23.8438 250.075 24.3895 251.216 24.8019C252.356 25.2143 253.776 25.4932 255.463 25.6267L254.48 27.737C253.084 27.7006 251.653 27.4459 250.172 26.9851C248.692 26.5242 247.624 25.8935 246.968 25.1051C246.253 25.9056 245.136 26.5363 243.644 27.0093C242.151 27.4823 240.731 27.737 239.408 27.7977L238.426 25.6145C240.076 25.5054 241.484 25.2385 242.624 24.814C243.777 24.3895 244.566 23.8559 244.978 23.1888H239.348V20.8359H254.528H254.516ZM255.269 30.8177H248.522V31.885C249.286 31.9093 249.966 31.9456 250.548 32.0063C251.131 32.0669 251.689 32.164 252.223 32.3095C252.769 32.455 253.206 32.637 253.558 32.8674C253.91 33.0979 254.177 33.3768 254.383 33.7407C254.589 34.1045 254.686 34.529 254.686 35.002C254.686 35.4751 254.601 35.8632 254.419 36.2149C254.249 36.5666 253.982 36.8456 253.618 37.076C253.254 37.2943 252.866 37.4763 252.453 37.6218C252.041 37.7552 251.507 37.8644 250.876 37.925C250.233 37.9978 249.626 38.0463 249.044 38.0706C248.461 38.0948 247.769 38.1069 246.944 38.1069C245.719 38.1069 244.687 38.0706 243.862 37.9978C243.037 37.925 242.236 37.7916 241.471 37.5854C240.707 37.3792 240.137 37.0639 239.76 36.6394C239.384 36.2149 239.19 35.6691 239.19 35.0142C239.19 34.432 239.336 33.9347 239.639 33.5345C239.93 33.1342 240.379 32.8189 240.962 32.6006C241.544 32.3701 242.187 32.2125 242.867 32.1033C243.559 31.9942 244.384 31.9335 245.355 31.9093V30.8419H238.62V28.489H255.244V30.8419L255.269 30.8177ZM251.495 34.9657C251.495 34.5533 251.191 34.2986 250.597 34.2137C250.002 34.1167 248.777 34.0803 246.944 34.0803C245.112 34.0803 243.874 34.1288 243.267 34.2137C242.673 34.3107 242.369 34.5533 242.369 34.9657C242.369 35.378 242.673 35.6327 243.267 35.7176C243.862 35.8147 245.088 35.8632 246.944 35.8632C248.801 35.8632 249.99 35.8147 250.585 35.7176C251.191 35.6085 251.483 35.3659 251.483 34.9657H251.495Z" fill="white"/>
<path d="M256.543 25.0445C256.543 23.5891 257.065 22.4248 258.121 21.5394C259.176 20.654 260.475 20.2174 262.052 20.2174C263.63 20.2174 264.928 20.654 265.984 21.5394C267.04 22.4248 267.561 23.5891 267.561 25.0445C267.561 26.5 267.04 27.6522 265.984 28.5254C264.928 29.4108 263.618 29.8474 262.052 29.8474C260.487 29.8474 259.176 29.4108 258.121 28.5254C257.077 27.64 256.543 26.4878 256.543 25.0445ZM273.034 34.3714C273.034 34.9778 272.901 35.5115 272.646 35.9602C272.379 36.409 272.039 36.7607 271.602 37.0275C271.165 37.2944 270.607 37.5127 269.94 37.6704C269.272 37.828 268.593 37.9372 267.901 37.9857C267.21 38.0342 266.409 38.0585 265.498 38.0585C264.37 38.0585 263.375 37.9978 262.513 37.9008C261.652 37.7916 260.851 37.6097 260.086 37.3671C259.322 37.1124 258.751 36.7365 258.351 36.2271C257.951 35.7298 257.756 35.1112 257.756 34.3714C257.756 33.6315 257.951 33.0009 258.363 32.4915C258.764 31.9821 259.346 31.594 260.098 31.3393C260.851 31.0724 261.652 30.8905 262.513 30.7935C263.375 30.6843 264.37 30.6358 265.498 30.6358C266.409 30.6358 267.21 30.6601 267.901 30.7207C268.593 30.7692 269.272 30.8784 269.94 31.0482C270.607 31.2058 271.165 31.4242 271.602 31.691C272.039 31.9578 272.379 32.3217 272.646 32.7704C272.901 33.2192 273.034 33.765 273.034 34.3835V34.3714ZM260.171 23.201C259.698 23.6497 259.455 24.2683 259.455 25.0445C259.455 25.8208 259.698 26.4393 260.171 26.8881C260.645 27.3368 261.276 27.5551 262.04 27.5551C262.805 27.5551 263.436 27.3247 263.921 26.8759C264.406 26.4272 264.649 25.8086 264.649 25.0445C264.649 24.2804 264.406 23.6497 263.933 23.201C263.46 22.7522 262.829 22.5339 262.04 22.5339C261.251 22.5339 260.645 22.7644 260.171 23.201ZM269.891 34.3593C269.891 33.8135 269.552 33.4375 268.884 33.2434C268.217 33.0494 267.088 32.9402 265.511 32.9402C263.836 32.9402 262.647 33.0373 261.955 33.2434C261.263 33.4496 260.912 33.8135 260.912 34.3593C260.912 34.9051 261.263 35.2689 261.943 35.463C262.635 35.657 263.824 35.754 265.511 35.754C267.088 35.754 268.217 35.657 268.884 35.463C269.552 35.2568 269.891 34.9051 269.891 34.3593ZM272.719 20.7389V23.9651H274.466V26.3665H272.719V30.2598H269.721V20.7389H272.719Z" fill="white"/>
<path d="M275.303 25.566C275.303 23.9529 275.825 22.6551 276.856 21.6849C277.888 20.7146 279.199 20.2294 280.776 20.2294C281.747 20.2294 282.633 20.4235 283.421 20.8116C284.222 21.1997 284.853 21.7455 285.339 22.449H289.016V20.751H292.013V32.5035H289.016V29.2288H284.914C283.895 30.3568 282.511 30.9268 280.776 30.9268C279.199 30.9268 277.888 30.4417 276.856 29.4714C275.825 28.5011 275.303 27.2034 275.303 25.5781V25.566ZM276.832 37.5248V32.0063H279.927V35.0869H292.195V37.5248H276.832ZM278.216 25.566C278.216 26.4878 278.446 27.2034 278.907 27.737C279.381 28.2585 279.999 28.5254 280.764 28.5254C281.528 28.5254 282.147 28.2585 282.621 27.7249C283.094 27.1912 283.324 26.4635 283.324 25.566C283.324 24.6685 283.094 23.9408 282.621 23.4192C282.159 22.8856 281.541 22.6309 280.764 22.6309C279.987 22.6309 279.381 22.8977 278.907 23.4192C278.446 23.9408 278.216 24.6685 278.216 25.566ZM286.249 25.566C286.249 26.039 286.2 26.4514 286.115 26.8152H289.003V24.8383H286.212C286.237 25.1658 286.249 25.4083 286.249 25.566Z" fill="white"/>
<path d="M293.421 23.7953V21.5636H297.546V20.1082H300.641V21.5636H304.876V23.7953H293.433H293.421ZM293.894 27.5066C293.894 26.4514 294.367 25.6267 295.314 25.0445C296.26 24.4624 297.534 24.1713 299.148 24.1713C300.762 24.1713 302.036 24.4624 302.983 25.0445C303.929 25.6267 304.403 26.4514 304.403 27.5066C304.403 28.5618 303.929 29.3987 302.983 29.993C302.036 30.5873 300.762 30.8784 299.148 30.8784C297.534 30.8784 296.248 30.5873 295.314 29.993C294.367 29.3987 293.894 28.5739 293.894 27.5066ZM294.598 37.7067V31.3029H297.595V32.2731H306.672V31.3029H309.669V37.7067H294.586H294.598ZM296.782 27.5066C296.782 28.3435 297.571 28.7559 299.148 28.7559C300.726 28.7559 301.527 28.3435 301.527 27.5066C301.527 26.6698 300.726 26.2816 299.148 26.2816C297.571 26.2816 296.782 26.694 296.782 27.5066ZM297.595 35.5721H306.672V34.4199H297.595V35.5721ZM309.681 20.7389V24.7049H311.429V27.1064H309.681V30.7207H306.684V20.7389H309.681Z" fill="white"/>
<path d="M324.984 37.1124H312.291V34.6746H316.78V33.0008C315.591 32.7583 314.645 32.2853 313.965 31.5697C313.286 30.842 312.946 29.993 312.946 28.9742C312.946 27.7613 313.431 26.7668 314.414 26.0027C315.397 25.2386 316.695 24.8504 318.309 24.8504C319.923 24.8504 321.222 25.2386 322.205 26.0027C323.175 26.7668 323.673 27.7613 323.673 28.9742C323.673 29.993 323.321 30.8662 322.629 31.5939C321.926 32.3216 320.991 32.7825 319.79 33.0008V34.6746H324.996V37.1124H324.984ZM324.183 22.073V24.4259H312.4V22.073H316.671V20.3386H319.766V22.073H324.183ZM315.882 28.9742C315.882 29.5321 316.089 30.0051 316.513 30.3689C316.938 30.7449 317.533 30.9269 318.297 30.9269C319.062 30.9269 319.669 30.7449 320.093 30.3689C320.518 30.0051 320.724 29.5321 320.724 28.9742C320.724 28.4162 320.518 27.9675 320.093 27.6036C319.669 27.2398 319.074 27.0578 318.297 27.0578C317.521 27.0578 316.926 27.2398 316.513 27.6036C316.089 27.9675 315.882 28.4284 315.882 28.9742ZM329 20.7389V37.7067H326.003V20.7389H329Z" fill="white"/>
<path opacity="0.8" d="M225.705 7.568C222.041 7.568 219.625 6.192 219.625 3.92C219.625 1.648 222.041 0.271996 225.705 0.271996C229.369 0.271996 231.785 1.648 231.785 3.92C231.785 6.192 229.369 7.568 225.705 7.568ZM225.705 1.696C223.113 1.696 221.273 2.496 221.273 3.92C221.273 5.344 223.113 6.144 225.705 6.144C228.297 6.144 230.137 5.344 230.137 3.92C230.137 2.496 228.297 1.696 225.705 1.696ZM232.537 8.832V10.304H226.505V14.128H224.889V10.304H218.889V8.832H232.537ZM244.983 13.808V0.143996H246.567V13.808H244.983ZM234.599 12.992V5.984H240.711V2.096H234.567V0.639997H242.295V7.44H236.183V11.536H240.183C241.479 11.536 242.887 11.28 243.719 10.88V12.336C242.887 12.752 241.463 12.992 240.135 12.992H234.599ZM260.363 6.416H266.411V7.696H252.762V6.416H258.794V4.96H253.738V0.143996H255.338V3.68H265.595V4.96H260.363V6.416ZM259.579 8.832C262.843 8.832 265.595 9.472 265.595 11.344C265.595 13.216 262.843 13.856 259.579 13.856C256.314 13.856 253.562 13.216 253.562 11.344C253.562 9.472 256.314 8.832 259.579 8.832ZM259.579 12.592C261.802 12.592 263.931 12.288 263.931 11.344C263.931 10.4 261.802 10.096 259.579 10.096C257.354 10.096 255.226 10.4 255.226 11.344C255.226 12.288 257.354 12.592 259.579 12.592ZM278.969 0.143996H280.553V7.152H278.969V4.352H276.185C275.849 5.968 274.313 7.056 272.041 7.056C269.449 7.056 267.817 5.664 267.817 3.68C267.817 1.696 269.449 0.303997 272.041 0.303997C274.249 0.303997 275.769 1.328 276.153 2.88H278.969V0.143996ZM272.041 5.744C273.609 5.744 274.665 4.96 274.665 3.68C274.665 2.4 273.609 1.616 272.041 1.616C270.473 1.616 269.401 2.4 269.401 3.68C269.401 4.96 270.473 5.744 272.041 5.744ZM278.985 9.344V7.904H280.553V13.632H269.081V7.904H270.633V9.344H278.985ZM270.633 12.336H278.985V10.608H270.633V12.336ZM293.832 13.808V0.143996H295.416V13.808H293.832ZM287.304 9.04C284.84 9.04 283.08 7.28 283.08 4.736C283.08 2.192 284.84 0.431996 287.304 0.431996C289.752 0.431996 291.528 2.192 291.528 4.736C291.528 7.28 289.752 9.04 287.304 9.04ZM287.304 7.6C288.92 7.6 289.976 6.368 289.976 4.736C289.976 3.104 288.92 1.856 287.304 1.856C285.672 1.856 284.632 3.104 284.632 4.736C284.632 6.368 285.672 7.6 287.304 7.6ZM282.616 12.992V11.504H288.2C290.072 11.504 291.752 11.296 292.68 10.864V12.336C291.768 12.752 290.072 12.992 288.104 12.992H282.616ZM311.019 1.728V3.12H301.627V1.728H305.515V-3.8147e-06H307.131V1.728H311.019ZM312.763 0.143996H314.347V13.808H312.763V0.143996ZM302.347 6.896C302.347 5.152 303.899 3.968 306.347 3.968C308.795 3.968 310.347 5.152 310.347 6.896C310.347 8.64 308.795 9.808 306.347 9.808C303.899 9.808 302.347 8.64 302.347 6.896ZM308.843 6.896C308.843 6.016 307.995 5.264 306.347 5.264C304.699 5.264 303.851 6.016 303.851 6.896C303.851 7.776 304.699 8.528 306.347 8.528C307.995 8.528 308.843 7.776 308.843 6.896ZM301.563 11.584H307.147C309.019 11.584 310.651 11.424 311.627 10.976V12.416C310.763 12.8 309.083 12.992 307.163 12.992H301.563V11.584ZM328.857 2.944H330.777V4.464H328.857V7.696H327.273V0.143996H328.857V2.944ZM324.953 0.479997V6.912H316.969V0.479997H324.953ZM323.385 5.568V1.824H318.537V5.568H323.385ZM323.209 8.144C326.489 8.144 329.065 8.928 329.065 10.976C329.065 13.024 326.489 13.808 323.209 13.808C319.945 13.808 317.353 13.024 317.353 10.976C317.353 8.928 319.945 8.144 323.209 8.144ZM323.209 12.496C325.545 12.496 327.369 12.032 327.369 10.976C327.369 9.936 325.545 9.456 323.209 9.456C320.889 9.456 319.049 9.936 319.049 10.976C319.049 12.032 320.889 12.496 323.209 12.496Z" fill="white"/>
<path opacity="0.8" d="M53.7299 52.057L50.5729 48.13L48.9889 49.89V52.057H47.8339V43.246H48.9889V48.328L53.5099 43.246H54.9509L51.3209 47.294L55.2039 52.057H53.7299ZM58.2269 45.611C60.0859 45.611 61.4389 47.019 61.4389 48.911C61.4389 50.803 60.0859 52.211 58.2269 52.211C56.3569 52.211 55.0039 50.803 55.0039 48.911C55.0039 47.019 56.3569 45.611 58.2269 45.611ZM58.2269 46.612C56.9729 46.612 56.1149 47.602 56.1149 48.911C56.1149 50.22 56.9729 51.21 58.2269 51.21C59.4699 51.21 60.3279 50.22 60.3279 48.911C60.3279 47.602 59.4699 46.612 58.2269 46.612ZM62.5667 45.765H63.6997V46.733C63.9747 46.26 64.7337 45.611 65.9657 45.611C66.3507 45.611 66.6037 45.644 66.8237 45.721V46.799C66.5817 46.689 66.2737 46.623 65.8887 46.623C64.6017 46.623 63.6997 47.657 63.6997 48.801V52.057H62.5667V45.765ZM70.1235 52.211C68.2865 52.211 66.9665 50.803 66.9665 48.911C66.9665 47.019 68.2865 45.611 70.1235 45.611C71.9605 45.611 73.2695 47.019 73.2695 48.911C73.2695 49.054 73.2695 49.219 73.2475 49.373H68.0995C68.2205 50.451 69.0015 51.254 70.1235 51.254C70.9815 51.254 71.6525 50.858 71.8835 50.341H73.0385C72.6975 51.43 71.5645 52.211 70.1235 52.211ZM72.1585 48.449C72.0265 47.349 71.2565 46.568 70.1235 46.568C68.9905 46.568 68.2205 47.36 68.0995 48.449H72.1585ZM77.1726 52.211C75.3906 52.211 74.0596 50.792 74.0596 48.911C74.0596 47.03 75.3906 45.611 77.1726 45.611C78.3166 45.611 79.0866 46.161 79.4056 46.7V45.765H80.5386V52.057H79.4056V51.122C79.0866 51.661 78.3166 52.211 77.1726 52.211ZM77.2716 51.21C78.5476 51.21 79.4276 50.22 79.4276 48.911C79.4276 47.602 78.5476 46.612 77.2716 46.612C76.0066 46.612 75.1706 47.602 75.1706 48.911C75.1706 50.22 76.0066 51.21 77.2716 51.21ZM81.9984 45.765H83.1314V46.722C83.3954 46.26 84.1104 45.611 85.2654 45.611C86.7504 45.611 87.7954 46.678 87.7954 48.372V52.057H86.6624V48.57C86.6624 47.294 86.0464 46.601 85.0234 46.601C83.9234 46.601 83.1314 47.635 83.1314 48.801V52.057H81.9984V45.765ZM94.3197 45.611C95.8597 45.611 97.0147 46.37 97.0697 47.437H95.9587C95.9147 46.909 95.1997 46.535 94.2867 46.535C93.3737 46.535 92.7137 46.898 92.7137 47.371C92.7137 47.888 93.1097 48.207 94.6497 48.416C96.5417 48.669 97.2127 49.285 97.2127 50.264C97.2127 51.485 95.9257 52.211 94.3637 52.211C92.6807 52.211 91.6027 51.397 91.5257 50.297H92.6367C92.7027 50.792 93.2747 51.287 94.3967 51.287C95.3647 51.287 96.1017 50.891 96.1017 50.33C96.1017 49.813 95.6177 49.516 94.1107 49.318C92.3947 49.087 91.6027 48.537 91.6027 47.437C91.6027 46.326 92.7797 45.611 94.3197 45.611ZM103.98 52.057H102.847V51.1C102.583 51.562 101.868 52.211 100.713 52.211C99.2275 52.211 98.1825 51.144 98.1825 49.45V45.765H99.3155V49.252C99.3155 50.528 99.9315 51.221 100.955 51.221C102.055 51.221 102.847 50.187 102.847 49.021V45.765H103.98V52.057ZM111.303 49.923C110.962 51.287 109.807 52.211 108.344 52.211C106.474 52.211 105.11 50.803 105.11 48.911C105.11 47.019 106.463 45.611 108.322 45.611C109.807 45.611 110.973 46.568 111.281 47.877H110.126C109.873 47.129 109.213 46.612 108.322 46.612C107.068 46.612 106.221 47.602 106.221 48.911C106.221 50.22 107.068 51.21 108.322 51.21C109.213 51.21 109.895 50.682 110.148 49.923H111.303ZM118.235 49.923C117.894 51.287 116.739 52.211 115.276 52.211C113.406 52.211 112.042 50.803 112.042 48.911C112.042 47.019 113.395 45.611 115.254 45.611C116.739 45.611 117.905 46.568 118.213 47.877H117.058C116.805 47.129 116.145 46.612 115.254 46.612C114 46.612 113.153 47.602 113.153 48.911C113.153 50.22 114 51.21 115.254 51.21C116.145 51.21 116.827 50.682 117.08 49.923H118.235ZM122.131 52.211C120.294 52.211 118.974 50.803 118.974 48.911C118.974 47.019 120.294 45.611 122.131 45.611C123.968 45.611 125.277 47.019 125.277 48.911C125.277 49.054 125.277 49.219 125.255 49.373H120.107C120.228 50.451 121.009 51.254 122.131 51.254C122.989 51.254 123.66 50.858 123.891 50.341H125.046C124.705 51.43 123.572 52.211 122.131 52.211ZM124.166 48.449C124.034 47.349 123.264 46.568 122.131 46.568C120.998 46.568 120.228 47.36 120.107 48.449H124.166ZM128.872 45.611C130.412 45.611 131.567 46.37 131.622 47.437H130.511C130.467 46.909 129.752 46.535 128.839 46.535C127.926 46.535 127.266 46.898 127.266 47.371C127.266 47.888 127.662 48.207 129.202 48.416C131.094 48.669 131.765 49.285 131.765 50.264C131.765 51.485 130.478 52.211 128.916 52.211C127.233 52.211 126.155 51.397 126.078 50.297H127.189C127.255 50.792 127.827 51.287 128.949 51.287C129.917 51.287 130.654 50.891 130.654 50.33C130.654 49.813 130.17 49.516 128.663 49.318C126.947 49.087 126.155 48.537 126.155 47.437C126.155 46.326 127.332 45.611 128.872 45.611ZM135.353 45.611C136.893 45.611 138.048 46.37 138.103 47.437H136.992C136.948 46.909 136.233 46.535 135.32 46.535C134.407 46.535 133.747 46.898 133.747 47.371C133.747 47.888 134.143 48.207 135.683 48.416C137.575 48.669 138.246 49.285 138.246 50.264C138.246 51.485 136.959 52.211 135.397 52.211C133.714 52.211 132.636 51.397 132.559 50.297H133.67C133.736 50.792 134.308 51.287 135.43 51.287C136.398 51.287 137.135 50.891 137.135 50.33C137.135 49.813 136.651 49.516 135.144 49.318C133.428 49.087 132.636 48.537 132.636 47.437C132.636 46.326 133.813 45.611 135.353 45.611ZM142.252 45.611C144.111 45.611 145.464 47.019 145.464 48.911C145.464 50.803 144.111 52.211 142.252 52.211C140.382 52.211 139.029 50.803 139.029 48.911C139.029 47.019 140.382 45.611 142.252 45.611ZM142.252 46.612C140.998 46.612 140.14 47.602 140.14 48.911C140.14 50.22 140.998 51.21 142.252 51.21C143.495 51.21 144.353 50.22 144.353 48.911C144.353 47.602 143.495 46.612 142.252 46.612ZM146.592 45.765H147.725V46.733C148 46.26 148.759 45.611 149.991 45.611C150.376 45.611 150.629 45.644 150.849 45.721V46.799C150.607 46.689 150.299 46.623 149.914 46.623C148.627 46.623 147.725 47.657 147.725 48.801V52.057H146.592V45.765ZM160.963 52.057L160.083 49.879H155.848L154.968 52.057H153.758L157.388 43.246H158.609L162.228 52.057H160.963ZM156.255 48.856H159.676L157.971 44.599L156.255 48.856ZM165.53 52.211C163.748 52.211 162.417 50.792 162.417 48.911C162.417 47.03 163.748 45.611 165.53 45.611C166.674 45.611 167.444 46.161 167.763 46.7V42.971H168.896V52.057H167.763V51.122C167.444 51.661 166.674 52.211 165.53 52.211ZM165.629 51.21C166.905 51.21 167.785 50.22 167.785 48.911C167.785 47.602 166.905 46.612 165.629 46.612C164.364 46.612 163.528 47.602 163.528 48.911C163.528 50.22 164.364 51.21 165.629 51.21ZM175.075 45.765H176.241L173.579 52.057H172.38L169.729 45.765H170.961L173.018 50.77L175.075 45.765ZM179.437 52.211C177.655 52.211 176.324 50.792 176.324 48.911C176.324 47.03 177.655 45.611 179.437 45.611C180.581 45.611 181.351 46.161 181.67 46.7V45.765H182.803V52.057H181.67V51.122C181.351 51.661 180.581 52.211 179.437 52.211ZM179.536 51.21C180.812 51.21 181.692 50.22 181.692 48.911C181.692 47.602 180.812 46.612 179.536 46.612C178.271 46.612 177.435 47.602 177.435 48.911C177.435 50.22 178.271 51.21 179.536 51.21ZM184.263 45.765H185.396V46.722C185.66 46.26 186.375 45.611 187.53 45.611C189.015 45.611 190.06 46.678 190.06 48.372V52.057H188.927V48.57C188.927 47.294 188.311 46.601 187.288 46.601C186.188 46.601 185.396 47.635 185.396 48.801V52.057H184.263V45.765ZM197.208 49.923C196.867 51.287 195.712 52.211 194.249 52.211C192.379 52.211 191.015 50.803 191.015 48.911C191.015 47.019 192.368 45.611 194.227 45.611C195.712 45.611 196.878 46.568 197.186 47.877H196.031C195.778 47.129 195.118 46.612 194.227 46.612C192.973 46.612 192.126 47.602 192.126 48.911C192.126 50.22 192.973 51.21 194.227 51.21C195.118 51.21 195.8 50.682 196.053 49.923H197.208ZM201.104 52.211C199.267 52.211 197.947 50.803 197.947 48.911C197.947 47.019 199.267 45.611 201.104 45.611C202.941 45.611 204.25 47.019 204.25 48.911C204.25 49.054 204.25 49.219 204.228 49.373H199.08C199.201 50.451 199.982 51.254 201.104 51.254C201.962 51.254 202.633 50.858 202.864 50.341H204.019C203.678 51.43 202.545 52.211 201.104 52.211ZM203.139 48.449C203.007 47.349 202.237 46.568 201.104 46.568C199.971 46.568 199.201 47.36 199.08 48.449H203.139ZM208.153 52.211C206.371 52.211 205.04 50.792 205.04 48.911C205.04 47.03 206.371 45.611 208.153 45.611C209.297 45.611 210.067 46.161 210.386 46.7V42.971H211.519V52.057H210.386V51.122C210.067 51.661 209.297 52.211 208.153 52.211ZM208.252 51.21C209.528 51.21 210.408 50.22 210.408 48.911C210.408 47.602 209.528 46.612 208.252 46.612C206.987 46.612 206.151 47.602 206.151 48.911C206.151 50.22 206.987 51.21 208.252 51.21ZM215.798 43.246H221.958V44.28H216.953V47.283L221.474 47.272V48.306H216.953V52.057H215.798V43.246ZM225.393 52.211C223.611 52.211 222.28 50.792 222.28 48.911C222.28 47.03 223.611 45.611 225.393 45.611C226.537 45.611 227.307 46.161 227.626 46.7V45.765H228.759V52.057H227.626V51.122C227.307 51.661 226.537 52.211 225.393 52.211ZM225.492 51.21C226.768 51.21 227.648 50.22 227.648 48.911C227.648 47.602 226.768 46.612 225.492 46.612C224.227 46.612 223.391 47.602 223.391 48.911C223.391 50.22 224.227 51.21 225.492 51.21ZM230.219 45.765H231.352V46.733C231.627 46.26 232.386 45.611 233.618 45.611C234.003 45.611 234.256 45.644 234.476 45.721V46.799C234.234 46.689 233.926 46.623 233.541 46.623C232.254 46.623 231.352 47.657 231.352 48.801V52.057H230.219V45.765ZM235.282 45.765H236.415V46.656C236.701 46.194 237.262 45.611 238.318 45.611C239.253 45.611 239.968 46.128 240.276 46.931C240.65 46.139 241.442 45.611 242.509 45.611C243.851 45.611 244.819 46.634 244.819 48.229V52.057H243.686V48.416C243.686 47.283 243.136 46.601 242.245 46.601C241.299 46.601 240.617 47.525 240.617 48.669V52.057H239.484V48.46C239.484 47.283 238.923 46.601 238.043 46.601C237.108 46.601 236.415 47.525 236.415 48.658V52.057H235.282V45.765ZM248.94 52.211C247.103 52.211 245.783 50.803 245.783 48.911C245.783 47.019 247.103 45.611 248.94 45.611C250.777 45.611 252.086 47.019 252.086 48.911C252.086 49.054 252.086 49.219 252.064 49.373H246.916C247.037 50.451 247.818 51.254 248.94 51.254C249.798 51.254 250.469 50.858 250.7 50.341H251.855C251.514 51.43 250.381 52.211 248.94 52.211ZM250.975 48.449C250.843 47.349 250.073 46.568 248.94 46.568C247.807 46.568 247.037 47.36 246.916 48.449H250.975ZM253.206 45.765H254.339V46.733C254.614 46.26 255.373 45.611 256.605 45.611C256.99 45.611 257.243 45.644 257.463 45.721V46.799C257.221 46.689 256.913 46.623 256.528 46.623C255.241 46.623 254.339 47.657 254.339 48.801V52.057H253.206V45.765ZM260.744 45.611C262.284 45.611 263.439 46.37 263.494 47.437H262.383C262.339 46.909 261.624 46.535 260.711 46.535C259.798 46.535 259.138 46.898 259.138 47.371C259.138 47.888 259.534 48.207 261.074 48.416C262.966 48.669 263.637 49.285 263.637 50.264C263.637 51.485 262.35 52.211 260.788 52.211C259.105 52.211 258.027 51.397 257.95 50.297H259.061C259.127 50.792 259.699 51.287 260.821 51.287C261.789 51.287 262.526 50.891 262.526 50.33C262.526 49.813 262.042 49.516 260.535 49.318C258.819 49.087 258.027 48.537 258.027 47.437C258.027 46.326 259.204 45.611 260.744 45.611ZM267.569 43.246H273.729V44.28H268.724V47.283L273.245 47.272V48.306H268.724V52.057H267.569V43.246ZM277.208 52.211C275.371 52.211 274.051 50.803 274.051 48.911C274.051 47.019 275.371 45.611 277.208 45.611C279.045 45.611 280.354 47.019 280.354 48.911C280.354 49.054 280.354 49.219 280.332 49.373H275.184C275.305 50.451 276.086 51.254 277.208 51.254C278.066 51.254 278.737 50.858 278.968 50.341H280.123C279.782 51.43 278.649 52.211 277.208 52.211ZM279.243 48.449C279.111 47.349 278.341 46.568 277.208 46.568C276.075 46.568 275.305 47.36 275.184 48.449H279.243ZM284.258 52.211C282.476 52.211 281.145 50.792 281.145 48.911C281.145 47.03 282.476 45.611 284.258 45.611C285.402 45.611 286.172 46.161 286.491 46.7V42.971H287.624V52.057H286.491V51.122C286.172 51.661 285.402 52.211 284.258 52.211ZM284.357 51.21C285.633 51.21 286.513 50.22 286.513 48.911C286.513 47.602 285.633 46.612 284.357 46.612C283.092 46.612 282.256 47.602 282.256 48.911C282.256 50.22 283.092 51.21 284.357 51.21ZM291.91 52.211C290.073 52.211 288.753 50.803 288.753 48.911C288.753 47.019 290.073 45.611 291.91 45.611C293.747 45.611 295.056 47.019 295.056 48.911C295.056 49.054 295.056 49.219 295.034 49.373H289.886C290.007 50.451 290.788 51.254 291.91 51.254C292.768 51.254 293.439 50.858 293.67 50.341H294.825C294.484 51.43 293.351 52.211 291.91 52.211ZM293.945 48.449C293.813 47.349 293.043 46.568 291.91 46.568C290.777 46.568 290.007 47.36 289.886 48.449H293.945ZM296.176 45.765H297.309V46.733C297.584 46.26 298.343 45.611 299.575 45.611C299.96 45.611 300.213 45.644 300.433 45.721V46.799C300.191 46.689 299.883 46.623 299.498 46.623C298.211 46.623 297.309 47.657 297.309 48.801V52.057H296.176V45.765ZM303.689 52.211C301.907 52.211 300.576 50.792 300.576 48.911C300.576 47.03 301.907 45.611 303.689 45.611C304.833 45.611 305.603 46.161 305.922 46.7V45.765H307.055V52.057H305.922V51.122C305.603 51.661 304.833 52.211 303.689 52.211ZM303.788 51.21C305.064 51.21 305.944 50.22 305.944 48.911C305.944 47.602 305.064 46.612 303.788 46.612C302.523 46.612 301.687 47.602 301.687 48.911C301.687 50.22 302.523 51.21 303.788 51.21ZM311.815 45.765V46.766H310.418V52.057H309.285V46.766H307.888V45.765H309.285V43.851H310.418V45.765H311.815ZM313.226 42.861C313.666 42.861 313.985 43.18 313.985 43.609C313.985 44.038 313.666 44.357 313.226 44.357C312.797 44.357 312.478 44.038 312.478 43.609C312.478 43.18 312.797 42.861 313.226 42.861ZM313.798 52.068H312.665V45.765H313.798V52.068ZM318.15 45.611C320.009 45.611 321.362 47.019 321.362 48.911C321.362 50.803 320.009 52.211 318.15 52.211C316.28 52.211 314.927 50.803 314.927 48.911C314.927 47.019 316.28 45.611 318.15 45.611ZM318.15 46.612C316.896 46.612 316.038 47.602 316.038 48.911C316.038 50.22 316.896 51.21 318.15 51.21C319.393 51.21 320.251 50.22 320.251 48.911C320.251 47.602 319.393 46.612 318.15 46.612ZM322.49 45.765H323.623V46.722C323.887 46.26 324.602 45.611 325.757 45.611C327.242 45.611 328.287 46.678 328.287 48.372V52.057H327.154V48.57C327.154 47.294 326.538 46.601 325.515 46.601C324.415 46.601 323.623 47.635 323.623 48.801V52.057H322.49V45.765Z" fill="white"/>
</svg>
