<svg width="240" height="205" viewBox="0 0 240 205" fill="none" xmlns="http://www.w3.org/2000/svg">
<path fill-rule="evenodd" clip-rule="evenodd" d="M224.954 4.29067C214.719 7.85819 206.256 12.4743 199.746 21.2364C193.972 28.9982 195.189 42.6897 194.129 52.1509C194.092 51.8978 194.056 51.6568 194.008 51.3796C190.512 32.3005 184.086 17.8738 184.086 17.8738C174.165 -6.08648 164.689 6.13469 165.859 9.43706C169.102 18.5728 173.803 16.0056 180.964 36.3502C183.99 46.0403 191.187 56.538 194.165 54.6217C217.07 40.219 230.162 21.8993 230.162 21.8993C218.915 42.292 203.472 53.5852 196.202 58.0807C203.906 56.9719 211.103 54.4288 211.103 54.4288C219.771 50.3792 237.878 38.9655 237.878 14.4027C237.878 14.4027 237.854 7.13505 239.228 0C239.095 0.723147 225.883 3.96525 224.966 4.27862L224.954 4.29067Z" fill="#6FBA2C"/>
<path d="M34.0325 96.6365H4.35201C5.14767 79.3894 10.5726 65.8184 20.6027 55.9354C30.6449 46.0403 43.5201 41.0988 59.2525 41.0988C68.9571 41.0988 77.5406 43.1477 84.9667 47.2456C92.3929 51.3434 98.3362 57.2491 102.797 64.9627C107.257 72.6762 109.487 80.5224 109.487 88.489C109.487 97.9864 106.787 108.195 101.386 119.138C95.9854 130.082 86.0999 143.014 71.7419 157.935L53.8034 176.845H110.802V205H0V190.441L49.4634 140.013C61.4224 127.913 69.379 118.186 73.3212 110.834C77.2753 103.482 79.2404 96.8293 79.2404 90.8875C79.2404 84.9456 77.191 79.6425 73.1042 75.617C69.0053 71.5915 63.7371 69.5908 57.2874 69.5908C50.8378 69.5908 45.3284 72.0133 40.9764 76.8705C36.6244 81.7276 34.3098 88.3203 34.0204 96.6485L34.0325 96.6365Z" fill="url(#paint0_linear_228_2829)"/>
<path d="M173.333 171.53C193.212 165.625 207.727 147.209 207.727 125.406C207.727 121.428 207.245 117.547 206.329 113.859C206.329 113.859 206.329 113.855 206.329 113.847C201.482 82.728 174.563 58.9123 142.085 58.9123C123.267 58.9123 106.305 66.9031 94.4302 79.6908C108.836 59.2016 132.658 45.8113 159.602 45.8113C172.586 45.8113 184.834 48.9209 195.66 54.4168C211.44 65.2158 222.338 82.8364 223.833 103.374C226.208 135.891 204.219 164.576 173.333 171.518V171.53Z" fill="url(#paint1_linear_228_2829)"/>
<path d="M233.164 155.886C221.205 184.728 192.766 205 159.59 205C148.8 205 138.493 202.843 129.114 198.962C113.803 190.176 102.097 175.243 97.9625 156.658C90.5002 123.019 110.548 89.6943 143.146 80.1729C125.437 86.6089 112.574 103.145 111.537 122.814C111.489 123.67 111.465 124.538 111.465 125.418C111.465 129.419 111.947 133.288 112.875 137C119.759 170.518 151.718 193.225 186.003 188.199C206.654 185.174 223.616 172.748 233.164 155.898V155.886Z" fill="url(#paint2_linear_228_2829)"/>
<path d="M239.216 125.406C239.216 136.193 237.07 146.497 233.164 155.886C223.616 172.736 206.666 185.162 186.003 188.187C151.718 193.225 119.759 170.506 112.875 136.988C118.059 157.959 137.01 173.507 159.59 173.507C164.364 173.507 168.969 172.808 173.333 171.518C204.219 164.576 226.208 135.891 223.833 103.374C222.338 82.8244 211.44 65.2158 195.66 54.4168C221.507 67.566 239.216 94.4068 239.216 125.406Z" fill="url(#paint3_linear_228_2829)"/>
<path d="M206.317 113.847C201.145 92.852 182.194 77.2923 159.59 77.2923C153.839 77.2923 148.318 78.3047 143.207 80.1487C143.182 80.1487 143.17 80.1608 143.158 80.1608C110.56 89.6822 90.5001 123.007 97.9745 156.646C102.11 175.23 113.815 190.175 129.126 198.95C100.277 186.982 79.9878 158.562 79.9878 125.394C79.9878 108.376 85.3284 92.611 94.4182 79.6787C106.293 66.891 123.243 58.9003 142.073 58.9003C174.563 58.9003 201.482 82.7159 206.317 113.835V113.847Z" fill="url(#paint4_linear_228_2829)"/>
<path d="M143.966 118.054H136.648V113.739H156.588V118.054H149.27V136.614H143.978V118.054H143.966Z" fill="#6FBA2C"/>
<path d="M183.665 113.739V136.602H178.372V127.226H167.981V136.602H162.688V113.739H167.981V122.754H178.372V113.739H183.665Z" fill="#6FBA2C"/>
<defs>
<linearGradient id="paint0_linear_228_2829" x1="0" y1="123.043" x2="110.777" y2="123.043" gradientUnits="userSpaceOnUse">
<stop offset="0.26" stop-color="#4DA635"/>
<stop offset="0.36" stop-color="#57AA36"/>
<stop offset="0.53" stop-color="#72B63A"/>
<stop offset="0.75" stop-color="#9FC941"/>
<stop offset="1" stop-color="#DAE24A"/>
</linearGradient>
<linearGradient id="paint1_linear_228_2829" x1="114.936" y1="48.957" x2="214.745" y2="140.231" gradientUnits="userSpaceOnUse">
<stop offset="0.26" stop-color="#F08300"/>
<stop offset="0.42" stop-color="#F18D08"/>
<stop offset="0.68" stop-color="#F6A81E"/>
<stop offset="1" stop-color="#FDD23F"/>
</linearGradient>
<linearGradient id="paint2_linear_228_2829" x1="227.558" y1="176.882" x2="91.3778" y2="121.26" gradientUnits="userSpaceOnUse">
<stop offset="0.26" stop-color="#4DA635"/>
<stop offset="0.36" stop-color="#57AA36"/>
<stop offset="0.53" stop-color="#72B63A"/>
<stop offset="0.75" stop-color="#9FC941"/>
<stop offset="1" stop-color="#DAE24A"/>
</linearGradient>
<linearGradient id="paint3_linear_228_2829" x1="208.933" y1="58.0928" x2="154.767" y2="191.402" gradientUnits="userSpaceOnUse">
<stop offset="0.26" stop-color="#F08300"/>
<stop offset="0.42" stop-color="#F18D08"/>
<stop offset="0.68" stop-color="#F6A81E"/>
<stop offset="1" stop-color="#FDD23F"/>
</linearGradient>
<linearGradient id="paint4_linear_228_2829" x1="117.661" y1="196.877" x2="160.426" y2="57.1467" gradientUnits="userSpaceOnUse">
<stop offset="0.26" stop-color="#4DA635"/>
<stop offset="0.36" stop-color="#57AA36"/>
<stop offset="0.53" stop-color="#72B63A"/>
<stop offset="0.75" stop-color="#9FC941"/>
<stop offset="1" stop-color="#DAE24A"/>
</linearGradient>
</defs>
</svg>
