<svg width="53" height="60" viewBox="0 0 53 60" fill="none" xmlns="http://www.w3.org/2000/svg">
<path d="M10.2075 27.0791V26.4376H13.1574V27.0791H15.4932V29.2641H7.87166V27.0791H10.2075ZM10.5031 34.435C10.0841 34.435 9.71045 34.3699 9.38557 34.2429C9.0607 34.1159 8.78455 33.9401 8.55714 33.7219C8.32973 33.5037 8.1608 33.2498 8.04384 32.9632C7.92689 32.6766 7.86841 32.3706 7.86841 32.0449C7.86841 31.7193 7.92689 31.423 8.04384 31.1332C8.15755 30.8434 8.32973 30.5861 8.55714 30.368C8.78455 30.1498 9.0607 29.9772 9.38557 29.847C9.71045 29.72 10.0808 29.6548 10.5031 29.6548H12.865C13.2841 29.6548 13.6577 29.72 13.9825 29.847C14.3074 29.9772 14.5803 30.1498 14.8045 30.368C15.0254 30.5861 15.1976 30.8434 15.3178 31.1332C15.438 31.4262 15.4965 31.7291 15.4965 32.0449C15.4965 32.3608 15.438 32.6766 15.3178 32.9632C15.1976 33.2498 15.0254 33.5037 14.8045 33.7219C14.5803 33.9401 14.3074 34.1159 13.9825 34.2429C13.6577 34.3732 13.2841 34.435 12.865 34.435H10.5031ZM10.9515 34.8225V35.5943C10.9515 35.8255 11.0229 36.0111 11.1626 36.1543C11.3023 36.2976 11.4908 36.366 11.7214 36.366H19.161V38.551H10.8215C10.3927 38.551 10.0061 38.4826 9.66171 38.3458C9.3141 38.209 9.02171 38.0169 8.77806 37.7727C8.5344 37.5285 8.34272 37.2322 8.20628 36.887C8.06983 36.5386 8.00161 36.1511 8.00161 35.7245V34.8258H10.9515V34.8225ZM10.8378 32.0449C10.8378 32.1556 10.8702 32.2403 10.9385 32.2957C11.0067 32.351 11.0977 32.3803 11.2081 32.3803H12.1567C12.2672 32.3803 12.3582 32.351 12.4264 32.2957C12.4946 32.2403 12.5304 32.1556 12.5304 32.0449C12.5304 31.9342 12.4979 31.8496 12.4264 31.7942C12.3582 31.7388 12.2672 31.7095 12.1567 31.7095H11.2081C11.0977 31.7095 11.0067 31.7388 10.9385 31.7942C10.8702 31.8496 10.8378 31.9342 10.8378 32.0449ZM16.0812 26.8219H19.0311V29.7134H20.1844V32.2859H19.0311V35.0765H16.0812V26.8219Z" fill="white"/>
<path d="M20.7693 36.2748C20.7693 35.565 20.9707 35.0049 21.3736 34.6044C21.7764 34.2006 22.3644 33.9987 23.1441 33.9987H30.7137C31.4934 33.9987 32.0814 34.2006 32.4843 34.6044C32.8871 35.0081 33.0885 35.565 33.0885 36.2748C33.0885 36.9847 32.8871 37.5448 32.4843 37.9453C32.0814 38.3491 31.4934 38.551 30.7137 38.551H23.1441C22.3644 38.551 21.7764 38.3491 21.3736 37.9453C20.9707 37.5415 20.7693 36.9847 20.7693 36.2748ZM32.9586 29.0622V30.9899H28.4038V31.5695H32.9586V33.4972H20.8992V31.5695H25.454V30.9899H22.9524C22.6536 30.9899 22.3774 30.9378 22.1305 30.8369C21.8836 30.7327 21.6659 30.5894 21.484 30.407C21.2988 30.2214 21.1559 30.0065 21.0552 29.759C20.9512 29.5116 20.9025 29.238 20.9025 28.9352V26.8251H23.8523V28.7398C23.8523 28.9547 23.9596 29.0622 24.174 29.0622H32.9618H32.9586ZM23.7321 36.2748C23.7321 36.3693 23.7549 36.4409 23.8004 36.4865C23.8491 36.5353 23.9043 36.5581 23.9758 36.5581H29.8755C29.9437 36.5581 30.0022 36.5353 30.0477 36.4865C30.0932 36.4409 30.1192 36.3693 30.1192 36.2748C30.1192 36.1804 30.0964 36.1088 30.0477 36.0632C29.999 36.0176 29.9437 35.9915 29.8755 35.9915H23.9758C23.9076 35.9915 23.8491 36.0143 23.8004 36.0632C23.7549 36.1088 23.7321 36.1804 23.7321 36.2748Z" fill="white"/>
<path d="M37.172 33.4061C36.6263 33.4061 36.1487 33.3181 35.7426 33.1423C35.3365 32.9665 34.9954 32.7288 34.7225 32.4292C34.4496 32.1296 34.2449 31.7812 34.1085 31.3807C33.972 30.9834 33.9038 30.5601 33.9038 30.114C33.9038 29.6679 33.972 29.2445 34.1085 28.8473C34.2449 28.45 34.4496 28.0983 34.7225 27.7988C34.9954 27.4992 35.3365 27.2615 35.7426 27.0856C36.1487 26.9098 36.6263 26.8219 37.172 26.8219H38.4813C38.9426 26.8219 39.3552 26.887 39.7126 27.014C40.0732 27.141 40.3883 27.3168 40.6612 27.5415H42.7534V26.8219H45.7032V34.6923H42.7534V32.6864H40.6612C40.3883 32.9078 40.0699 33.0837 39.7126 33.2139C39.352 33.3409 38.9426 33.4061 38.4813 33.4061H37.172ZM37.1103 34.0508V35.2068C37.1103 35.438 37.1818 35.6236 37.3215 35.7669C37.4644 35.9069 37.6496 35.9785 37.8803 35.9785H45.8332V38.551H36.9804C36.5515 38.551 36.1649 38.4826 35.8206 38.3458C35.473 38.2091 35.1806 38.0169 34.9369 37.7727C34.6933 37.5285 34.5016 37.2322 34.3651 36.887C34.2287 36.5386 34.1605 36.1511 34.1605 35.7245V34.0541H37.1103V34.0508ZM36.8667 30.114C36.8667 30.3875 36.9316 30.6187 37.0648 30.8076C37.198 30.9964 37.354 31.0909 37.5327 31.0909H38.1239C38.3026 31.0909 38.4585 30.9964 38.5917 30.8076C38.7249 30.6187 38.7899 30.3875 38.7899 30.114C38.7899 29.8404 38.7217 29.6092 38.5917 29.4204C38.4585 29.2315 38.3026 29.1371 38.1239 29.1371H37.5327C37.354 29.1371 37.198 29.2315 37.0648 29.4204C36.9316 29.6092 36.8667 29.8404 36.8667 30.114ZM41.7528 30.114C41.7528 30.1824 41.7528 30.2475 41.7463 30.3061C41.743 30.3647 41.7333 30.4298 41.7268 30.4982H42.7534V29.7265H41.7268C41.7365 29.7949 41.743 29.86 41.7463 29.9186C41.7495 29.9772 41.7528 30.0423 41.7528 30.1107V30.114Z" fill="white"/>
<path d="M16.9519 18.0137V19.3846H16.2534V21.2993C16.2534 21.7551 16.3152 22.1003 16.4386 22.3315C16.5621 22.5627 16.7342 22.706 16.9519 22.7613V24.2722C16.6563 24.2266 16.3769 24.1094 16.1137 23.9173C15.8506 23.7284 15.6459 23.4744 15.4997 23.1586C15.3535 23.4744 15.1489 23.7284 14.889 23.9173C14.6258 24.1062 14.3464 24.2266 14.0508 24.2722V22.7613C14.2717 22.706 14.4406 22.5627 14.5641 22.3315C14.6875 22.1003 14.7493 21.7551 14.7493 21.2993V19.3846H14.0508V18.0137H16.9519ZM16.5068 20.2507H17.2183V18.0137H18.6575V24.2722H17.2183V21.5532H16.5068V20.2507ZM18.9077 24.2722V18.0137H20.3468V24.2722H18.9077Z" fill="#F5A200"/>
<path d="M21.0615 24.2722V22.2012C21.0615 21.9407 21.1038 21.703 21.185 21.4881C21.2662 21.2732 21.3831 21.0876 21.5358 20.9345C21.6885 20.7815 21.8737 20.6643 22.0881 20.5829C22.3025 20.5015 22.5397 20.4591 22.7996 20.4591H23.9724C24.1608 20.4591 24.3103 20.4135 24.4207 20.3256C24.5312 20.2377 24.5897 20.1172 24.5897 19.9739C24.5897 19.8144 24.5344 19.6841 24.4207 19.5832C24.3103 19.4823 24.1608 19.4334 23.9724 19.4334H21.198V18.0202H24.4565C24.7066 18.0202 24.9438 18.0658 25.1647 18.1537C25.3856 18.2416 25.5805 18.3686 25.743 18.5347C25.9054 18.7007 26.0353 18.8961 26.1296 19.1273C26.2238 19.3585 26.2693 19.6158 26.2693 19.8991C26.2693 20.1823 26.2238 20.4494 26.1296 20.6871C26.0353 20.9248 25.9054 21.1299 25.743 21.2993C25.5773 21.4686 25.3856 21.5988 25.1647 21.6933C24.9438 21.7877 24.7066 21.8333 24.4565 21.8333H23.2252C23.079 21.8333 22.962 21.8756 22.8776 21.9635C22.7899 22.0514 22.7476 22.1654 22.7476 22.3119V22.8623H26.3147V24.2755H21.0648L21.0615 24.2722Z" fill="#F5A200"/>
<path d="M29.7488 17.8704C30.1874 17.8704 30.5837 17.929 30.9411 18.0495C31.2952 18.17 31.6006 18.336 31.854 18.5575C32.1074 18.7756 32.3023 19.0427 32.442 19.3487C32.5817 19.6581 32.6499 20 32.6499 20.3745V21.9179C32.6499 22.2924 32.5784 22.6343 32.442 22.9437C32.3023 23.253 32.1074 23.5168 31.854 23.7349C31.6006 23.9531 31.2952 24.1224 30.9411 24.2429C30.5837 24.3601 30.1874 24.422 29.7488 24.422C29.3102 24.422 28.9139 24.3634 28.5565 24.2429C28.1991 24.1224 27.897 23.9531 27.6436 23.7349C27.3902 23.5168 27.1953 23.2498 27.0556 22.9437C26.9159 22.6343 26.8477 22.2924 26.8477 21.9179V20.3745C26.8477 20 26.9159 19.6581 27.0556 19.3487C27.1953 19.0394 27.3902 18.7756 27.6436 18.5575C27.897 18.336 28.2024 18.17 28.5565 18.0495C28.9139 17.929 29.3102 17.8704 29.7488 17.8704ZM29.7488 23.0023C29.9307 23.0023 30.0996 22.973 30.2491 22.9176C30.3985 22.8623 30.5285 22.7809 30.6324 22.6734C30.7364 22.5692 30.8176 22.4422 30.8793 22.2924C30.9378 22.1426 30.9671 21.9798 30.9671 21.8007V20.4884C30.9671 20.3093 30.9378 20.1465 30.8793 19.9967C30.8209 19.847 30.7364 19.72 30.6324 19.6158C30.5285 19.5116 30.3985 19.4302 30.2491 19.3715C30.0996 19.3162 29.9307 19.2869 29.7488 19.2869C29.5669 19.2869 29.4012 19.3162 29.2485 19.3715C29.099 19.4302 28.9691 19.5083 28.8651 19.6158C28.7612 19.72 28.6767 19.847 28.6182 19.9967C28.5597 20.1465 28.5305 20.3093 28.5305 20.4884V21.8007C28.5305 21.9798 28.5597 22.1426 28.6182 22.2924C28.6767 22.4422 28.7612 22.5692 28.8651 22.6734C28.9691 22.7776 29.099 22.859 29.2485 22.9176C29.3979 22.9762 29.5669 23.0023 29.7488 23.0023Z" fill="#F5A200"/>
<path d="M34.7355 23.0381V22.491C34.4984 22.4878 34.2937 22.4455 34.1215 22.3673C33.9461 22.2892 33.8064 22.1882 33.6927 22.058C33.579 21.931 33.4978 21.7812 33.4425 21.6119C33.3873 21.4425 33.3613 21.2634 33.3613 21.0778C33.3613 20.8922 33.3906 20.7099 33.4458 20.5373C33.5043 20.3647 33.5887 20.2149 33.7024 20.0847C33.8162 19.9544 33.9623 19.8502 34.1378 19.7753C34.3132 19.7004 34.5244 19.6614 34.7648 19.6614H36.2982C36.5354 19.6614 36.7433 19.7004 36.922 19.7753C37.1006 19.8502 37.2468 19.9544 37.3605 20.0847C37.4742 20.2149 37.5587 20.3647 37.6172 20.5373C37.6757 20.7099 37.7016 20.889 37.7016 21.0778C37.7016 21.2667 37.6724 21.4458 37.6172 21.6151C37.5587 21.7877 37.4742 21.9375 37.3605 22.0645C37.2468 22.1915 37.1039 22.2957 36.9284 22.3738C36.7563 22.452 36.5483 22.491 36.3112 22.491V23.0381H38.085V18.0169H39.6606V24.2755H33.4296V23.0381H34.7388H34.7355ZM34.742 18.2905V17.8085H36.3177V18.2905H37.6334V19.4562H33.4296V18.2905H34.7453H34.742ZM34.9402 21.0746C34.9402 21.1788 34.9695 21.2634 35.0279 21.3286C35.0864 21.3937 35.1709 21.423 35.2748 21.423H35.7816C35.8856 21.423 35.9701 21.3904 36.0285 21.3286C36.087 21.2634 36.1195 21.1788 36.1195 21.0746C36.1195 20.9704 36.0903 20.8857 36.0285 20.8206C35.9701 20.7555 35.8856 20.7229 35.7816 20.7229H35.2748C35.1709 20.7229 35.0897 20.7555 35.0279 20.8206C34.9695 20.8857 34.9402 20.9704 34.9402 21.0746Z" fill="#F5A200"/>
<path d="M17.1794 40.7717V41.8756H17.7674V40.7717H19.343V44.9723H17.7674V43.2498H17.1794V44.422C16.978 44.4188 16.783 44.3927 16.5914 44.3471C16.3997 44.3015 16.2178 44.2397 16.0456 44.1583C15.8734 44.0769 15.7174 43.9824 15.5777 43.8717C15.4348 43.761 15.3146 43.634 15.2139 43.4972C15.1327 43.6568 15.0157 43.7968 14.8695 43.9206C14.7201 44.041 14.5544 44.142 14.3725 44.2266C14.1905 44.3081 13.9956 44.3732 13.7909 44.4188C13.5863 44.4644 13.3816 44.4904 13.1802 44.4937V43.1912C13.3361 43.1814 13.4856 43.1521 13.6285 43.1032C13.7714 43.0544 13.8981 42.9827 14.0086 42.8948C14.1191 42.8069 14.2068 42.6929 14.275 42.5594C14.3432 42.4259 14.3822 42.2664 14.392 42.084H13.1802V40.7815H17.1794V40.7717ZM14.7558 44.7639V45.2459C14.7558 45.3696 14.7948 45.4673 14.8695 45.5454C14.9442 45.6203 15.045 45.6594 15.1684 45.6594H19.4145V47.0303H14.6908C14.4634 47.0303 14.2555 46.9945 14.0703 46.9196C13.8852 46.8447 13.7292 46.7437 13.5993 46.6135C13.4693 46.4832 13.3686 46.3269 13.2939 46.1413C13.2224 45.9557 13.1834 45.7506 13.1834 45.5194V44.7639H14.7591H14.7558ZM15.9676 42.0743C15.9773 42.3771 16.0586 42.605 16.2113 42.7581C16.3639 42.9111 16.5654 43.0153 16.809 43.0707V42.0743H15.9676Z" fill="#F5A200"/>
<path d="M20.074 43.0707H24.9341V42.0743H20.074V40.7717H26.5097V44.3732H24.0797V44.8551H26.5097V47.0303H24.9341V46.1576H20.074V44.8551H22.504V44.3732H20.074V43.0707Z" fill="#F5A200"/>
<path d="M32.1073 47.027V44.3797H31.7922V47.027H28.7514C28.524 47.027 28.3161 46.9912 28.1309 46.9163C27.9457 46.8447 27.7898 46.7405 27.6566 46.6102C27.5266 46.48 27.4259 46.3237 27.3512 46.1381C27.2797 45.9525 27.2407 45.7473 27.2407 45.5161V40.7685H29.9664V42.071H28.6799V45.2426C28.6799 45.3077 28.6929 45.3663 28.7222 45.4249C28.7481 45.4836 28.7839 45.5324 28.8294 45.5747C28.8716 45.6171 28.9236 45.6529 28.9788 45.6822C29.0373 45.7082 29.0958 45.7245 29.1607 45.7245H30.353V40.7717H31.789V43.0772H32.1041V40.7717H33.5433V47.0303H32.1041L32.1073 47.027Z" fill="#F5A200"/>
<path d="M35.6031 45.7929V45.2459C35.3659 45.2426 35.1612 45.2003 34.9858 45.1221C34.8136 45.044 34.6707 44.943 34.557 44.8128C34.4465 44.6858 34.362 44.536 34.3068 44.3667C34.2516 44.1973 34.2256 44.0182 34.2256 43.8326C34.2256 43.647 34.2548 43.4647 34.3101 43.2921C34.3685 43.1195 34.453 42.9697 34.5667 42.8395C34.6804 42.7092 34.8266 42.605 35.002 42.5301C35.1775 42.4552 35.3854 42.4162 35.629 42.4162H37.1625C37.3996 42.4162 37.6075 42.4552 37.7862 42.5301C37.9649 42.605 38.1111 42.7092 38.2248 42.8395C38.3385 42.9697 38.4262 43.1195 38.4814 43.2921C38.5367 43.4647 38.5659 43.6438 38.5659 43.8326C38.5659 44.0215 38.5367 44.2006 38.4814 44.3732C38.423 44.5458 38.3385 44.6955 38.2248 44.8225C38.1111 44.9495 37.9681 45.0537 37.7927 45.1319C37.6205 45.21 37.4159 45.2491 37.1754 45.2491V45.7962H38.9493V40.775H40.5249V47.0335H34.2938V45.7994H35.5998L35.6031 45.7929ZM35.6096 41.0453V40.5633H37.1852V41.0453H38.4977V42.211H34.2938V41.0453H35.6096ZM35.8077 43.8294C35.8077 43.9336 35.837 44.0182 35.8987 44.0834C35.9572 44.1485 36.0384 44.1778 36.1456 44.1778H36.6524C36.7564 44.1778 36.8408 44.1452 36.8993 44.0834C36.9578 44.0182 36.987 43.9336 36.987 43.8294C36.987 43.7252 36.9578 43.6405 36.8993 43.5754C36.8408 43.5103 36.7564 43.481 36.6524 43.481H36.1456C36.0384 43.481 35.9572 43.5135 35.8987 43.5754C35.8402 43.6405 35.8077 43.7252 35.8077 43.8294Z" fill="#F5A200"/>
<path d="M41.6424 11.6379L41.5937 11.5988C41.2071 11.3058 40.645 11.3644 40.3364 11.7323C40.0278 12.097 40.0927 12.6343 40.4761 12.9274L40.5476 12.9827C46.2848 17.1964 50.0112 23.9954 50.0112 31.6705C50.0112 44.4546 39.6704 54.8193 26.9158 54.8193C14.1613 54.8193 3.82377 44.4513 3.82377 31.6672C3.82377 21.677 10.1393 13.1618 18.9889 9.91859L19.2521 9.82416C19.9733 10.0456 20.8862 10.3224 22.0135 10.6578C22.0135 10.6578 30.8273 14.7672 37.5912 8.03973C37.5912 8.03973 39.1084 6.51905 40.9017 5.30446C40.723 5.4282 37.1689 3.52654 36.9057 3.41257C33.9331 2.15891 31.1262 1.47183 27.8775 2.0254C25.5774 2.41941 23.4494 4.47086 21.5587 6.18365C24.4663 5.56822 29.0535 5.0635 34.4074 6.14783C30.7429 5.74731 21.1623 7.41778 21.1623 7.41778C16.4321 8.38815 12.1633 10.6252 8.71638 13.7577C9.88268 11.9472 11.9651 7.60013 9.03151 2.9111C9.03151 2.9111 8.15759 1.52719 7.56957 0C7.6313 0.153045 5.50012 2.35428 5.36368 2.52361C3.84001 4.42852 2.78092 6.32367 2.58925 8.77564C2.40082 11.1397 4.63596 13.8619 5.44165 15.8548C5.45139 15.8776 5.45789 15.9004 5.46764 15.9232C8.15435 10.394 8.45973 5.26539 8.45973 5.26539C8.75536 10.5047 7.16348 14.5099 6.31881 16.239C2.37808 20.8727 0 26.874 0 33.4386C0 48.1081 11.8644 60 26.5 60C41.1356 60 53 48.1081 53 33.4386C53 24.4122 48.507 16.4376 41.6424 11.6379Z" fill="url(#paint0_linear_228_2590)"/>
<defs>
<linearGradient id="paint0_linear_228_2590" x1="26.5" y1="11.0485" x2="26.5" y2="61.0029" gradientUnits="userSpaceOnUse">
<stop stop-color="#F5A200"/>
<stop offset="1" stop-color="#72AF2D"/>
</linearGradient>
</defs>
</svg>
